<?xml version="1.0" encoding="utf-8"?>
<!-- Generator: Adobe Illustrator 26.0.1, SVG Export Plug-In . SVG Version: 6.00 Build 0)  -->
<svg version="1.1" id="Layer_1" xmlns="http://www.w3.org/2000/svg" xmlns:xlink="http://www.w3.org/1999/xlink" x="0px" y="0px"
	 viewBox="0 0 750 600" style="enable-background:new 0 0 750 600;" xml:space="preserve">
<style type="text/css">
	.st0{fill:#E0E0E0;}
	.st1{fill:#F5F5F5;}
	.st2{fill:#FFFFFF;}
	.st3{fill:#EBEBEB;}
	.st4{fill:#263238;}
	.st5{fill:#455A64;}
	.st6{fill:#52ADFE;}
	.st7{fill:#FAFAFA;}
	.st8{opacity:0.4;}
	.st9{opacity:0.2;}
	.st10{fill:#FFBE9D;}
	.st11{opacity:0.6;}
	.st12{fill:#EB996E;}
	.st13{opacity:0.3;}
</style>
<g id="freepik--background-complete--inject-9">
	<rect x="73.9" y="134.5" class="st0" width="91.7" height="139.7"/>
	<rect x="69.3" y="134.5" class="st1" width="91.7" height="139.7"/>
	<rect x="80.7" y="149.6" class="st2" width="68.9" height="109.4"/>
	<path class="st0" d="M149.7,259.1c0,0,0-0.2,0-0.5s0-0.9,0-1.6c0-1.4,0-3.4,0-6c0-5.3,0-12.9-0.1-22.5c0-19.3-0.1-46.6-0.1-78.8
		l0.2,0.2H80.8l0,0l0.2-0.3c0,41.3,0,79.3,0,109.4l-0.2-0.2L131,259l13.9,0.1h3.6h1.3h-1.2H145h-13.8l-50.3,0.1h-0.2v-0.2
		c0-30.1,0-68.1,0-109.4v-0.3h0.3h68.9h0.2v0.4c0,32.2-0.1,59.6-0.1,79c0,9.6-0.1,17.2-0.1,22.5c0,2.6,0,4.6,0,6c0,0.7,0,1.2,0,1.5
		S149.7,259.1,149.7,259.1z"/>
	<path class="st0" d="M161.4,134.5c-0.5,0.9-1,1.7-1.6,2.5c-1.1,1.5-2.6,3.5-4.3,5.7s-3.3,4.1-4.5,5.5c-0.6,0.8-1.3,1.5-2,2.2
		c0.5-0.9,1.1-1.7,1.8-2.4l4.4-5.6l4.4-5.7C160,136,160.7,135.2,161.4,134.5z"/>
	<path class="st2" d="M150,258.7c3.4,5.7,7.4,11,12,15.8"/>
	<path class="st0" d="M162.1,274.5c-0.8-0.6-1.5-1.3-2.1-2c-1.6-1.7-3.1-3.5-4.5-5.4c-1.7-2.2-3.1-4.3-4-5.8c-0.5-0.8-1-1.7-1.4-2.6
		c0.6,0.7,1.2,1.5,1.7,2.4c1,1.5,2.4,3.5,4.1,5.7c1.6,2.2,3.2,4.1,4.4,5.5C160.9,273,161.5,273.7,162.1,274.5z"/>
	<path class="st2" d="M69.3,274.1l12-15.6"/>
	<path class="st0" d="M81.4,258.5c-1.8,2.8-3.8,5.4-5.8,8c-1.9,2.7-4,5.2-6.2,7.6c1.8-2.8,3.8-5.4,5.8-8
		C77.1,263.5,79.2,260.9,81.4,258.5z"/>
	<path class="st0" d="M69.3,134.5c2.1,2.3,4,4.8,5.8,7.4c1.9,2.4,3.8,5,5.4,7.7c-2.1-2.3-4-4.8-5.8-7.4
		C72.9,139.7,71,137.2,69.3,134.5z"/>
	<rect x="105.1" y="171.9" class="st0" width="23.1" height="68.9"/>
	<polygon class="st0" points="289.4,114.2 289.4,175.3 205.7,175.3 202.7,114.6 	"/>
	<rect x="202.7" y="114.6" class="st2" width="83.6" height="60.6"/>
	<path class="st0" d="M286.8,175.6h-84.4v-61.4h84.4V175.6z M203.1,174.8H286V115h-82.8V174.8z"/>
	<rect x="211.8" y="122.1" class="st2" width="65.5" height="45.5"/>
	<path class="st0" d="M277.3,122.1H276h-3.6h-13.5l-47.2,0.2l0.2-0.2c0,13.9,0,29.3,0,45.5l0,0l-0.2-0.2h65.5l-0.2,0.2
		c0-13.9,0.1-25.2,0.1-33.1c0-3.9,0-7,0-9.2c0-1.1,0-1.8,0-2.4S277.2,122.1,277.3,122.1c-0.1,0-0.1,0.2-0.1,0.8s0,1.3,0,2.4
		c0,2.1,0,5.2,0,9.1c0,7.9,0,19.3,0.1,33.2v0.2h-0.2h-65.5h-0.2v-0.2l0,0c0-16.2,0-31.6,0-45.5v-0.1h0.2l47.3,0.1l13.5,0.1h3.6h1.2
		L277.3,122.1z"/>
	<path class="st0" d="M202.7,114.4c0.5,0.3,1,0.6,1.4,1c0.9,0.7,2,1.6,3.3,2.6c1.3,1.1,2.4,2.1,3.1,2.8c0.4,0.4,0.8,0.8,1.2,1.3
		c-1.6-1.2-3.1-2.4-4.6-3.8C205.6,117.2,204.1,115.8,202.7,114.4z"/>
	<path class="st0" d="M286.4,114.6c-1.4,1.4-2.8,2.7-4.4,3.9c-1.5,1.3-3,2.5-4.7,3.6c1.4-1.4,2.8-2.7,4.4-3.9
		C283.2,116.9,284.7,115.7,286.4,114.6z"/>
	<path class="st2" d="M286.3,175.2l-9.3-7.9"/>
	<path class="st0" d="M277,167.3c1.7,1.2,3.3,2.4,4.8,3.8c1.6,1.3,3.1,2.7,4.5,4.1c-1.7-1.1-3.3-2.4-4.8-3.8
		C279.9,170.1,278.4,168.8,277,167.3z"/>
	<path class="st0" d="M202.7,175.2c1.4-1.4,2.8-2.7,4.4-3.9c1.5-1.3,3-2.5,4.6-3.6c-1.4,1.4-2.8,2.7-4.4,3.9
		C205.9,172.9,204.3,174.1,202.7,175.2z"/>
	<rect x="225.1" y="136.3" class="st0" width="41.2" height="15.3"/>
	<path class="st3" d="M630.1,388.3c0,0-7.5-3.7-13.4,14.8s-7.6,28.9-7.6,28.9s-1.7,3.9-4.4,2s-6.9-8.2-10.7-6.3s-4.7,7-2.8,14
		c1.8,7,5.2,22.6,5.5,24s-0.2,3.6-2.2,2.5c-2-1-14.5-11.8-19-5.3c-4.5,6.5,3.6,25.2,4.4,27.2s0.6,3-0.3,3.7
		c-0.9,0.7-4.7-3.4-8.4-6.3s-8.4-5.6-10.7-1.6c-2.3,4-1.1,18.8,15.6,40.5l8.3,9.5l12.1-2.6c25.6-7.3,34.9-18.5,35.2-23.2
		c0.4-4.6-5-5.4-9.5-5.3s-9.9,1-10.3-0.1c-0.3-1.1,0-2.1,1.8-3.2s18.8-11.3,18.8-19.3c0-8-16.1-7-18.3-7.4c-2.2-0.4-1.4-2.5-0.4-3.4
		c1-0.9,12.5-11.4,17.9-16c5.4-4.6,7.7-9.1,5.5-13.1s-8.9-1.4-12.2-1.5c-3.3-0.1-2.5-4.3-2.5-4.3s4.4-9.5,10-28.1
		s-2.8-20.3-2.8-20.3"/>
	<path class="st0" d="M582.9,538.5c4.1-13.7,11.9-37.8,18.4-58.5c6.5-20.7,12.5-39.5,16.7-53.1c2.1-6.8,3.8-12.3,5-16.1
		c0.6-1.9,1-3.4,1.4-4.4c0.2-0.5,0.3-0.9,0.4-1.1c0.1-0.3,0.1-0.4,0.1-0.4s0,0.1-0.1,0.4c-0.1,0.3-0.2,0.7-0.3,1.1
		c-0.3,1.1-0.7,2.5-1.3,4.4c-1.1,3.8-2.8,9.4-4.8,16.2c-4.1,13.7-10,32.4-16.5,53.2c-6.5,20.7-14.3,44.8-18.5,58.5"/>
	<path class="st0" d="M599.5,436.5c0.2,0.3,0.3,0.5,0.4,0.8c0.3,0.5,0.6,1.3,1,2.3c0.8,2,2,4.7,3.1,7.8s2.2,5.7,3,7.8
		c0.3,0.9,0.7,1.7,0.9,2.4c0.1,0.3,0.2,0.6,0.3,0.9c-0.2-0.3-0.3-0.5-0.4-0.8c-0.3-0.5-0.6-1.3-1-2.3c-0.8-2-1.9-4.7-3.1-7.8
		s-2.2-5.7-3-7.8l-0.9-2.4C599.7,437.1,599.6,436.8,599.5,436.5z"/>
	<path class="st0" d="M609.4,458.5c0-0.1,5.2-2.7,11.8-5.9c6.6-3.2,11.9-5.6,12-5.5s-5.2,2.7-11.8,5.9S609.4,458.6,609.4,458.5z"/>
	<path class="st0" d="M598,489.8c0.3-0.1,0.6-0.2,0.9-0.2l2.5-0.4c2.1-0.3,4.9-0.8,8-1.4c3.1-0.6,5.9-1.3,8-1.8l2.4-0.6
		c0.3-0.1,0.6-0.2,0.9-0.2c-0.3,0.1-0.6,0.2-0.9,0.3c-0.6,0.2-1.4,0.4-2.4,0.7c-2,0.6-4.8,1.3-8,1.9c-3.2,0.6-6,1.1-8.1,1.3
		c-1,0.1-1.9,0.2-2.5,0.3C598.6,489.8,598.3,489.9,598,489.8z"/>
	<path class="st0" d="M584.9,472c0.2,0.2,0.4,0.4,0.6,0.6l1.5,1.8c1.2,1.6,2.9,3.7,4.7,6.2s3.5,4.6,4.7,6.2l1.4,1.9
		c0.2,0.2,0.3,0.5,0.5,0.7c-0.2-0.2-0.4-0.4-0.6-0.6l-1.5-1.8c-1.2-1.6-2.9-3.7-4.7-6.2s-3.5-4.6-4.6-6.2l-1.4-1.9
		C585.2,472.5,585,472.3,584.9,472z"/>
	<path class="st0" d="M571.4,498.4c0.3,0.2,0.5,0.5,0.7,0.8c0.5,0.6,1.1,1.4,1.9,2.4c1.6,2,3.8,4.8,6.1,7.9s4.5,5.9,6,7.9l1.8,2.4
		c0.2,0.3,0.4,0.6,0.6,0.9c-0.3-0.3-0.5-0.5-0.7-0.8l-1.9-2.4c-1.6-2-3.8-4.8-6.1-7.9c-2.4-3.1-4.5-5.9-6-7.9
		c-0.7-1-1.3-1.8-1.8-2.4C571.8,499,571.6,498.7,571.4,498.4z"/>
	<path class="st0" d="M588.4,520.1c0.4-0.1,0.7-0.2,1.1-0.3l3.1-0.6c2.6-0.5,6.2-1.2,10.2-2.1c3.9-0.9,7.5-1.8,10.1-2.5l3-0.8
		c0.4-0.1,0.7-0.2,1.1-0.3c-0.4,0.2-0.7,0.3-1.1,0.4c-0.7,0.2-1.7,0.6-3,0.9c-2.6,0.8-6.1,1.7-10.1,2.6c-4,0.9-7.6,1.6-10.2,2
		c-1.3,0.2-2.4,0.4-3.1,0.5C589.2,520,588.8,520.1,588.4,520.1z"/>
</g>
<g id="freepik--Floor--inject-9">
	<path class="st4" d="M652.4,538.1c0,0.1-137.4,0.3-306.8,0.3s-306.8-0.1-306.8-0.3s137.4-0.3,306.9-0.3S652.4,538,652.4,538.1z"/>
</g>
<g id="freepik--Stopwatch--inject-9">
	<polygon class="st4" points="485.1,151.9 494.7,143.8 507.7,158.6 498,166.7 	"/>
	<path class="st5" d="M503.1,142.7l-19.9,16.7l-14-15.9c5.5-7.5,12-13.2,19.9-16.7L503.1,142.7z"/>
	<path class="st4" d="M486.6,156.6c-0.1,0.1-3.5-3.5-7.5-8.1c-4-4.5-7.2-8.3-7.1-8.4c0.1-0.1,3.5,3.5,7.5,8.1
		C483.5,152.7,486.7,156.5,486.6,156.6z"/>
	<path class="st4" d="M490.3,153.4c-0.8-0.8-1.6-1.6-2.2-2.5c-1.3-1.5-3.2-3.7-5.2-6.1l-5.1-6.1l-1.5-1.9c-0.4-0.5-0.6-0.7-0.6-0.7
		c0.2-0.2,3.6,3.6,7.6,8.4c2,2.4,3.8,4.6,5.1,6.2C489.1,151.6,489.8,152.5,490.3,153.4z"/>
	<path class="st4" d="M495.4,149.2c-0.8-0.8-1.6-1.6-2.3-2.5c-1.4-1.6-3.2-3.7-5.2-6.2l-5.1-6.2l-1.5-1.9c-0.2-0.2-0.4-0.5-0.5-0.7
		c0.9,0.7,1.7,1.5,2.3,2.4c1.4,1.5,3.2,3.7,5.2,6.1c2,2.4,3.8,4.6,5.1,6.3C494.2,147.3,494.8,148.2,495.4,149.2z"/>
	<path class="st4" d="M500,145.2c-0.1,0.1-3.5-3.6-7.5-8.2s-7.2-8.4-7.1-8.5c0.1-0.1,3.4,3.6,7.5,8.2
		C496.9,141.3,500.1,145.1,500,145.2z"/>
	<polygon class="st4" points="656.3,144.9 665.1,153.9 650.7,167.3 642,158.3 	"/>
	<path class="st5" d="M665.5,162.7l-18.1-18.6l15.5-14.5c8,5,14.1,11.1,18.1,18.6L665.5,162.7z"/>
	<path class="st4" d="M650.4,147.3c-0.1-0.1,3.4-3.6,7.8-7.8c4.4-4.2,8.1-7.5,8.2-7.4c0.1,0.1-3.4,3.6-7.8,7.8
		C654.2,144.1,650.5,147.4,650.4,147.3z"/>
	<path class="st4" d="M653.9,150.8c0.7-0.8,1.5-1.6,2.4-2.3c1.5-1.4,3.6-3.3,5.9-5.4l6-5.3l1.8-1.6c0.4-0.4,0.7-0.6,0.7-0.6
		c0.2,0.2-3.5,3.7-8.1,7.9c-2.3,2.1-4.5,4-6,5.3C655.7,149.5,654.8,150.2,653.9,150.8z"/>
	<path class="st4" d="M658.5,155.5c0.7-0.8,1.5-1.6,2.4-2.3c1.5-1.4,3.6-3.3,6-5.4l6.1-5.3l1.9-1.6c0.2-0.2,0.5-0.4,0.7-0.6
		c-0.7,0.9-1.5,1.7-2.3,2.4c-1.5,1.4-3.6,3.3-6,5.4c-2.4,2.1-4.5,4-6.1,5.3C660.3,154.2,659.4,154.9,658.5,155.5z"/>
	<path class="st4" d="M662.8,159.8c-0.1-0.1,3.5-3.6,7.9-7.7s8.2-7.5,8.3-7.3c0.1,0.1-3.5,3.6-7.9,7.7S662.9,159.9,662.8,159.8z"/>
	<rect x="568.9" y="110.9" class="st4" width="15.1" height="23"/>
	<path class="st6" d="M592,117.8h-31V93c10.9-2.6,21.2-2.8,31,0L592,117.8z"/>
	<path class="st4" d="M592.4,93.1c-0.4,0.2-0.7,0.4-1.1,0.6c-1.1,0.5-2.2,0.8-3.3,1.2c-1.7,0.5-3.4,0.9-5.1,1.2
		c-2.1,0.3-4.2,0.5-6.3,0.5c-2.1,0-4.2-0.1-6.3-0.5c-1.7-0.3-3.4-0.6-5.1-1.1c-1.1-0.3-2.2-0.7-3.3-1.1c-0.4-0.1-0.8-0.3-1.1-0.5
		c0-0.1,1.7,0.6,4.5,1.3c1.7,0.4,3.3,0.8,5,1c2.1,0.3,4.2,0.4,6.2,0.4c2.1,0,4.2-0.2,6.2-0.5c1.7-0.2,3.4-0.6,5-1
		C590.7,93.7,592.3,93,592.4,93.1z"/>
	<path class="st4" d="M571.2,117.7c-0.1,0-0.3-4.8-0.3-10.6c0-5.9,0.1-10.6,0.3-10.6c0.1,0,0.3,4.8,0.3,10.6
		C571.5,112.9,571.4,117.7,571.2,117.7z"/>
	<path class="st4" d="M577.1,117.8c-0.1,0-0.3-4.8-0.3-10.7c0-5.9,0.1-10.7,0.3-10.7c0.1,0,0.3,4.8,0.3,10.7
		C577.4,113,577.3,117.8,577.1,117.8z"/>
	<path class="st4" d="M583,117.7c-0.1,0-0.3-4.8-0.3-10.7c0-5.9,0.1-10.7,0.3-10.7c0.1,0,0.3,4.8,0.3,10.7
		C583.3,113,583.2,117.7,583,117.7z"/>
	<path class="st4" d="M587.9,117.7c-0.2,0-0.3-5.2-0.3-11.6c0-6.4,0.1-11.6,0.3-11.6s0.3,5.2,0.3,11.6S588.1,117.7,587.9,117.7z"/>
	<path class="st4" d="M565.6,117.6c-0.1,0-0.3-5.2-0.3-11.6c0-6.4,0.1-11.6,0.3-11.6s0.3,5.2,0.3,11.6S565.8,117.6,565.6,117.6z"/>
	<ellipse class="st6" cx="574.6" cy="234.1" rx="109.6" ry="107.3"/>
	<ellipse class="st7" cx="574.6" cy="233.2" rx="92.1" ry="90.1"/>
	<path class="st4" d="M666.7,233.2c0,0,0-0.5-0.1-1.5c-0.1-1,0-2.4-0.2-4.3c-0.4-5.5-1.2-10.9-2.6-16.3c-1-3.8-2.3-7.6-3.8-11.3
		c-1.8-4.4-3.9-8.6-6.4-12.7c-6.1-9.9-14-18.6-23.4-25.6c-11.4-8.5-24.6-14.2-38.7-16.8c-11.9-2.1-24.1-2-36,0.4
		c-4.2,0.9-8.3,2-12.3,3.4c-17.1,6.1-31.9,17-42.7,31.3c-2.8,3.7-5.3,7.7-7.5,11.8c-1.1,2.1-2.1,4.2-3.1,6.3c-1,2.1-1.8,4.4-2.5,6.6
		c-1.6,4.5-2.7,9.2-3.5,13.9c-0.8,4.8-1.2,9.6-1.2,14.5c0,4.8,0.4,9.7,1.2,14.5c0.8,4.7,1.9,9.4,3.5,13.9c0.7,2.3,1.6,4.4,2.5,6.6
		c0.9,2.2,2,4.3,3.1,6.4c2.2,4.1,4.7,8.1,7.5,11.8c10.8,14.3,25.6,25.3,42.7,31.4c4,1.4,8.1,2.5,12.3,3.4c4.1,0.8,8.2,1.4,12.3,1.7
		c7.9,0.6,15.9,0.2,23.7-1.3c14.1-2.6,27.3-8.3,38.7-16.8c9.4-7,17.3-15.7,23.4-25.6c2.5-4.1,4.6-8.3,6.4-12.7
		c3.6-8.8,5.8-18.1,6.4-27.6c0.2-1.9,0.1-3.3,0.2-4.3C666.6,233.8,666.7,233.3,666.7,233.2c0,0,0,0.5,0,1.5c0,1,0,2.4-0.1,4.3
		c-0.6,9.5-2.7,18.8-6.3,27.7c-1.8,4.4-3.9,8.7-6.4,12.7c-6.1,9.9-14,18.7-23.4,25.7c-11.4,8.5-24.7,14.3-38.8,16.9
		c-7.8,1.5-15.8,1.9-23.8,1.3c-4.2-0.3-8.3-0.9-12.4-1.7c-4.2-0.9-8.3-2-12.4-3.4c-17.2-6.1-32.1-17.1-43-31.5
		c-2.8-3.8-5.3-7.7-7.5-11.9c-1.1-2.1-2.1-4.2-3.1-6.4c-1-2.2-1.8-4.4-2.5-6.7c-1.6-4.6-2.7-9.2-3.5-14c-1.6-9.6-1.6-19.5,0-29.1
		c0.8-4.7,2-9.4,3.5-13.9c0.7-2.3,1.7-4.5,2.6-6.7s2-4.3,3.1-6.4c2.2-4.1,4.7-8.1,7.5-11.9c10.8-14.4,25.8-25.4,42.9-31.5
		c4-1.4,8.2-2.6,12.3-3.4c4.1-0.8,8.2-1.4,12.4-1.7c8-0.6,16-0.1,23.8,1.3c14.1,2.6,27.4,8.4,38.8,16.9c9.4,7,17.3,15.8,23.4,25.7
		c4.6,7.5,8,15.6,10.2,24.1c1.4,5.3,2.2,10.8,2.5,16.3c0.2,1.9,0.1,3.3,0.1,4.3C666.7,232.8,666.7,233.2,666.7,233.2z"/>
	<path class="st4" d="M653.1,230c-2.9,0.1-5.3,0-5.3-0.2c0-0.2,2.3-0.6,5.3-0.7c2.9-0.2,5.3-0.1,5.3,0.2
		C658.4,229.5,656,229.9,653.1,230z"/>
	<path class="st4" d="M651.2,250.7c-2.8-0.7-5.1-1.4-5.1-1.6c0-0.2,2.4,0,5.3,0.7c2.9,0.6,5.1,1.3,5.1,1.6
		C656.5,251.7,654,251.4,651.2,250.7z"/>
	<path class="st4" d="M643.6,270.2c-2.6-1.4-4.5-2.7-4.4-2.9s2.3,0.7,4.9,2c2.6,1.3,4.6,2.6,4.4,2.9
		C648.3,272.4,646.2,271.6,643.6,270.2z"/>
	<path class="st4" d="M630.9,286.9c-2.1-2-3.7-3.8-3.5-4c0.2-0.2,2,1.3,4.2,3.2c2.1,2,3.7,3.7,3.5,4S633,288.9,630.9,286.9z"/>
	<path class="st4" d="M614.2,299.8c-1.5-2.5-2.5-4.6-2.3-4.7c0.2-0.1,1.6,1.8,3.1,4.2c1.5,2.4,2.5,4.6,2.3,4.7
		S615.6,302.2,614.2,299.8z"/>
	<path class="st4" d="M594.5,307.7c-0.7-2.8-1.1-5.1-0.9-5.1c0.3-0.1,1.1,2.1,1.9,4.9c0.8,2.8,1.2,5.1,0.9,5.1
		C596,312.7,595.2,310.5,594.5,307.7z"/>
	<path class="st4" d="M573.3,310.2c0-2.9,0.3-5.2,0.5-5.2c0.3,0,0.5,2.3,0.5,5.2s-0.3,5.2-0.5,5.2
		C573.5,315.4,573.3,313.1,573.3,310.2z"/>
	<path class="st4" d="M552.3,307.1c0.8-2.7,1.7-4.9,2-4.8c0.3,0.1-0.2,2.4-1,5.1c-0.8,2.8-1.7,5-2,4.8
		C551,312.1,551.5,309.8,552.3,307.1z"/>
	<path class="st4" d="M532.9,298.5c1.6-2.4,3-4.3,3.2-4.2s-0.8,2.2-2.3,4.7c-1.5,2.4-3,4.3-3.2,4.2
		C530.3,303.1,531.3,301,532.9,298.5z"/>
	<path class="st4" d="M516.5,285.2c2.2-1.9,4.1-3.3,4.2-3.2c0.2,0.2-1.4,1.9-3.5,3.9c-2.1,2-4,3.4-4.2,3.2
		C512.8,288.9,514.4,287.1,516.5,285.2z"/>
	<path class="st4" d="M504.4,268c2.6-1.3,4.8-2.1,4.9-1.9c0.1,0.2-1.9,1.5-4.5,2.8c-2.6,1.3-4.8,2.2-4.9,1.9
		C499.8,270.6,501.8,269.3,504.4,268z"/>
	<path class="st4" d="M497.4,248.4c2.9-0.6,5.2-0.8,5.3-0.6c0.1,0.2-2.2,0.9-5.1,1.5c-2.9,0.6-5.2,0.8-5.3,0.6
		S494.6,248.9,497.4,248.4z"/>
	<path class="st4" d="M496.1,227.6c2.9,0.2,5.3,0.6,5.3,0.8c0,0.2-2.4,0.3-5.3,0.1s-5.3-0.5-5.3-0.8
		C490.8,227.5,493.2,227.3,496.1,227.6z"/>
	<path class="st4" d="M500.6,207.2c2.8,1,4.9,2,4.8,2.2s-2.4-0.3-5.2-1.3c-2.8-0.9-4.9-1.9-4.8-2.2
		C495.5,205.6,497.8,206.2,500.6,207.2z"/>
	<path class="st4" d="M510.4,188.7c2.4,1.7,4.2,3.2,4.1,3.4c-0.1,0.2-2.2-0.9-4.6-2.6c-2.4-1.6-4.2-3.1-4.1-3.4
		C506,185.9,508,187,510.4,188.7z"/>
	<path class="st4" d="M525,173.5c1.8,2.2,3.2,4.2,3,4.3c-0.2,0.2-1.9-1.5-3.8-3.7c-1.9-2.2-3.2-4.1-3-4.3S523.1,171.3,525,173.5z"/>
	<path class="st4" d="M543.2,162.7c1.2,2.6,1.9,4.8,1.7,5c-0.2,0.1-1.4-1.9-2.6-4.5c-1.2-2.6-2-4.8-1.7-5
		C540.8,158,542,160,543.2,162.7z"/>
	<path class="st4" d="M563.7,157c0.4,2.8,0.5,5.2,0.3,5.2c-0.3,0-0.8-2.2-1.3-5.1s-0.6-5.2-0.3-5.2
		C562.7,151.9,563.3,154.2,563.7,157z"/>
	<path class="st4" d="M585,156.9c-0.4,2.8-0.9,5.1-1.2,5.1c-0.3,0-0.2-2.4,0.2-5.2c0.3-2.8,0.9-5.1,1.2-5.1
		C585.4,151.8,585.3,154.1,585,156.9z"/>
	<path class="st4" d="M605.5,162.4c-1.1,2.6-2.3,4.7-2.5,4.6c-0.2-0.1,0.5-2.3,1.6-5c1.1-2.7,2.2-4.7,2.5-4.6
		S606.6,159.8,605.5,162.4z"/>
	<path class="st4" d="M623.7,173.2c-1.8,2.2-3.5,3.9-3.7,3.8c-0.2-0.2,1.1-2.1,2.9-4.4c1.8-2.3,3.4-4,3.7-3.8
		C626.9,169,625.5,170.9,623.7,173.2z"/>
	<path class="st4" d="M638.4,188.3c-2.4,1.7-4.4,2.9-4.6,2.7s1.6-1.8,4-3.5c2.3-1.7,4.4-2.9,4.6-2.7
		C642.6,185,640.8,186.6,638.4,188.3z"/>
	<path class="st4" d="M648.4,206.7c-2.7,1-5.1,1.6-5.1,1.4c-0.1-0.2,2-1.3,4.8-2.3c2.8-1,5-1.6,5.1-1.4
		C653.3,204.7,651.2,205.7,648.4,206.7z"/>
	<path class="st4" d="M653,227c-2.9,0.2-5.3,0.2-5.3,0c0-0.2,2.3-0.7,5.2-1c2.9-0.3,5.3-0.2,5.3,0C658.2,226.4,655.9,226.8,653,227z
		"/>
	<path class="st2" d="M538.8,135.7l-0.3,0.1l-0.9,0.4c-0.8,0.3-2,0.7-3.6,1.4c-4.4,1.8-8.6,3.9-12.7,6.2c-2.6,1.5-5.4,3.2-8.3,5.2
		c-2.9,2-5.9,4.3-8.8,6.9c-13,11.2-22.9,25.4-28.9,41.3c-1.4,3.6-2.4,7.2-3.3,10.5c-0.9,3.3-1.5,6.5-2,9.4
		c-0.7,4.6-1.2,9.2-1.3,13.9c-0.1,1.7,0,2.9,0,3.8c0,0.4,0,0.7,0,1c0,0.1,0,0.2,0,0.3c0-0.1,0-0.2,0-0.3c0-0.2,0-0.6,0-1
		c0-0.9-0.1-2.1-0.1-3.8c0-4.7,0.4-9.3,1.1-13.9c0.4-2.9,1.1-6.1,1.9-9.5c0.9-3.6,2-7.1,3.3-10.6c5.9-16,15.9-30.3,29-41.5
		c3-2.6,6-4.8,8.9-6.9s5.7-3.7,8.3-5.2c4.1-2.3,8.4-4.4,12.8-6.1c1.6-0.6,2.8-1,3.6-1.3l1-0.3C538.7,135.8,538.8,135.8,538.8,135.7z
		"/>
	<path class="st2" d="M569.4,129.9c-1,0.2-2.1,0.3-3.2,0.4c-2,0.2-4.7,0.5-7.7,0.9c-3,0.4-5.7,0.8-7.6,1.1c-1,0.2-2.1,0.3-3.2,0.4
		c1-0.3,2.1-0.6,3.1-0.8c1.9-0.4,4.6-0.8,7.6-1.2s5.7-0.6,7.7-0.7C567.3,129.9,568.4,129.8,569.4,129.9z"/>
	<g class="st8">
		<path d="M501,287.4c0,0,47.7,73.7,121.7,36c77.3-39.4,34.6-129.8,34.6-129.8s36.4,72-39,118.9c-18.8,11.7-39.2,11.7-54.8,10.2
			C523.8,318.8,501,287.4,501,287.4z"/>
	</g>
	<path class="st0" d="M600.2,185.3c0.5,13.2,0.1,26.5-1.2,39.6c-0.5,4.8-1,9.6-2.9,14c-1.9,4.4-5.1,8.5-9.6,10.4
		c-4.5,1.9-10.3,1.1-13.4-2.6L600.2,185.3z"/>
	<polygon class="st6" points="572.6,226.1 606,171 585.8,233.3 575.5,236.3 	"/>
	<g class="st8">
		<polygon points="606,171 581.2,227.3 585.8,233.3 		"/>
	</g>
	<ellipse class="st7" cx="575.5" cy="236.3" rx="10.8" ry="10.5"/>
	<path class="st4" d="M586.3,236.3c-0.1-0.9-0.2-1.7-0.4-2.5c-0.6-2.3-2-4.3-3.9-5.7c-2.9-2.1-6.6-2.7-10-1.4
		c-1,0.3-1.8,0.8-2.7,1.4c-0.9,0.6-1.6,1.3-2.2,2.2c-2.7,3.6-2.7,8.5,0,12.2c1.2,1.6,2.9,2.9,4.9,3.6c5.5,2,11.6-0.8,13.6-6.2
		c0.1-0.3,0.2-0.6,0.3-0.9C586.1,238,586.2,237.1,586.3,236.3c0.1,0.9,0,1.7-0.2,2.6c-0.6,2.4-1.9,4.5-3.9,6c-1.3,1-2.9,1.7-4.6,2
		c-1.9,0.4-3.9,0.2-5.8-0.4c-1-0.3-1.9-0.8-2.8-1.5c-0.9-0.6-1.7-1.4-2.3-2.3c-2.9-3.8-2.9-9,0-12.8c0.7-0.9,1.4-1.7,2.3-2.3
		c0.9-0.6,1.8-1.1,2.8-1.5c1.8-0.7,3.8-0.8,5.8-0.4c4.2,0.8,7.5,3.9,8.5,8C586.3,234.5,586.4,235.4,586.3,236.3z"/>
	<ellipse class="st5" cx="575.6" cy="236.3" rx="8" ry="7.8"/>
</g>
<g id="freepik--Calendar--inject-9">
	<polygon class="st0" points="496,537.2 560.2,537.2 530.3,282.7 	"/>
	<polygon class="st7" points="180.5,282.7 138.8,540.2 495,544.8 530.3,282.7 	"/>
	<polygon class="st3" points="514.4,400.7 161.4,400.7 169.1,353.2 520.8,353.2 	"/>
	<path class="st4" d="M514.4,400.7H161.4l0,0l7.7-47.4h351.8l0,0L514.4,400.7z M161.4,400.6h352.9l6.4-47.4H169.1L161.4,400.6z"/>
	<polygon class="st6" points="180.5,282.7 169.1,353.2 520.8,353.2 530.3,282.7 	"/>
	<path class="st4" d="M180.6,282.7l349.7-0.3h0.3v0.3c-10.3,76.7-22,163.7-34.4,255.6v0.3H492l-352.9-0.1h-0.3v-0.3L180.6,282.7
		c-0.3,2.1-16.2,100.8-41.2,255.7l-0.3-0.3h352.8h4l-0.3,0.3c12.4-91.9,24.1-178.9,34.5-255.6l0.3,0.3L180.6,282.7z"/>
	<path class="st4" d="M520.8,353.2c0,0.2-78.8,0.3-175.8,0.3s-175.9-0.1-175.9-0.3s78.8-0.3,175.9-0.3S520.8,353.1,520.8,353.2z"/>
	<path class="st4" d="M514.4,400.7c0,0.2-79.2,0.3-176.8,0.3s-176.8-0.1-176.8-0.3c0-0.2,79.2-0.3,176.8-0.3
		S514.4,400.5,514.4,400.7z"/>
	<path class="st4" d="M507.2,444.3c0,0.2-79.2,0.3-176.8,0.3s-176.9-0.1-176.9-0.3c0-0.2,79.2-0.3,176.8-0.3
		S507.2,444.1,507.2,444.3z"/>
	<path class="st4" d="M500,487.9c0,0.2-79.2,0.3-176.8,0.3s-176.8-0.1-176.8-0.3s79.2-0.3,176.8-0.3S500,487.8,500,487.9z"/>
	<path class="st4" d="M188.8,538.7c-0.2,0,6.3-41.6,14.4-92.8c8.2-51.2,14.9-92.7,15.1-92.7s-6.3,41.6-14.4,92.8
		S189,538.7,188.8,538.7z"/>
	<path class="st4" d="M243.2,538.7c-0.2,0,6.3-41.6,14.4-92.8c8.1-51.2,14.9-92.7,15.1-92.7c0.2,0-6.3,41.6-14.4,92.8
		S243.3,538.7,243.2,538.7z"/>
	<path class="st4" d="M293.8,536.9c-0.2,0,6.2-41.2,14.3-91.9c8.1-50.7,14.8-91.8,14.9-91.8s-6.2,41.1-14.3,91.9
		C300.7,495.8,294,536.9,293.8,536.9z"/>
	<path class="st4" d="M343.8,538.3c-0.2,0,6.3-41.5,14.4-92.6c8.1-51.1,14.9-92.5,15-92.5s-6.3,41.5-14.4,92.6
		S344,538.4,343.8,538.3z"/>
	<path class="st4" d="M394.1,538.3c-0.2,0,6.3-41.5,14.4-92.6c8.1-51.1,14.9-92.5,15-92.5s-6.3,41.5-14.4,92.6
		C401,497,394.3,538.4,394.1,538.3z"/>
	<path class="st4" d="M444.4,538.5c-0.2,0,6.3-41.5,14.4-92.7c8.1-51.2,14.9-92.7,15.1-92.6s-6.3,41.5-14.4,92.7
		S444.5,538.6,444.4,538.5z"/>
	<g class="st9">
		<path d="M412.7,356.5c6.1-2.7,9.8-8.9,11.4-15.2c1.6-6.4,1.3-13,1.6-19.5c0.2-6.6,1-13.3,4.4-18.9c2-3.3,4.8-6.1,7.1-9.3
			s3.9-7.1,3.1-10.9l-37.9,0.2L412.7,356.5z"/>
	</g>
	<path class="st4" d="M255.7,404.2c-0.1,0.2-0.2,0.3-0.4,0.4l-1.1,1.2c-1,1-2.5,2.4-4.3,4.2c-3.7,3.5-8.8,8.3-14.7,13.4
		c-5.8,5.1-11.3,9.6-15.2,12.7c-2,1.6-3.6,2.8-4.8,3.6l-1.3,1c-0.1,0.1-0.3,0.2-0.5,0.3c0,0,0.1-0.2,0.4-0.4l1.2-1.1l4.6-3.9
		c3.9-3.2,9.3-7.8,15.1-12.8s11.1-9.8,14.8-13.2l4.4-4l1.2-1.1C255.3,404.4,255.5,404.3,255.7,404.2z"/>
	<path class="st4" d="M252.8,441.5c-0.5-0.5-1-0.9-1.5-1.5l-3.9-4.1c-3.3-3.5-7.8-8.2-12.7-13.4L222,409.4l-3.9-4
		c-0.5-0.5-0.9-1-1.4-1.5c0.6,0.4,1.1,0.9,1.6,1.4c1,0.9,2.3,2.2,4,3.9c3.4,3.3,8,7.9,13,13.1s9.4,10,12.6,13.5
		c1.6,1.8,2.8,3.2,3.7,4.2C252,440.4,252.4,440.9,252.8,441.5z"/>
	<path class="st6" d="M266,415.3c0,0,0.1-0.3,0.4-0.9c0.4-0.9,0.9-1.8,1.5-2.6c2.3-3.1,5.5-5.5,9.1-6.7c2.6-0.9,5.4-1.3,8.2-1.1
		c3.3,0.3,6.5,1.4,9.4,3.1c3.3,2,6,4.7,8.1,7.9c2.4,3.6,3.5,7.8,3.4,12.1c-0.1,2.3-0.9,4.5-2.1,6.5c-1.3,2-3,3.8-5.1,5.1
		c-4.3,2.8-9.5,4.1-14.6,3.8c-2.7-0.1-5.4-0.7-7.9-1.7c-2.6-1-5-2.6-6.9-4.6c-1-1.1-1.8-2.3-2.4-3.5c-0.6-1.3-1-2.7-1.2-4.1
		c-0.4-2.9-0.2-5.9,0.8-8.7c1.9-5.8,6-10.7,11.4-13.7c5.7-3.1,12.6-3.4,18.5-0.8c3.1,1.3,5.7,3.3,7.8,5.9c2,2.6,3.3,5.8,3.7,9.1
		c0.4,3.4-0.1,6.8-1.6,9.8c-0.8,1.5-1.7,2.9-2.9,4.2c-1.2,1.2-2.6,2.3-4.1,3.1c-6.1,3.3-13.2,4-19.8,1.8c-3.2-1-6.1-2.6-8.6-4.9
		c-2.5-2.2-4.1-5.2-4.8-8.4c-0.7-3.2-0.2-6.5,1.3-9.4c0.8-1.4,1.8-2.7,3.1-3.6c1.3-0.9,2.7-1.7,4.2-2.2c3-0.9,6.1-1.3,9.2-1.2
		c3,0,6,0.4,8.9,1.2c2.9,0.7,5.5,2.2,7.8,4.1c2.1,2,3.6,4.5,4.2,7.4c0.6,2.7,0.4,5.6-0.5,8.2c-0.9,2.6-2.3,4.9-4.3,6.7
		c-3.7,3.6-8.6,5.7-13.8,5.9c-2.4,0.1-4.9-0.2-7.1-1c-2.2-0.8-4.2-2.1-5.8-3.8c-1.5-1.6-2.6-3.5-3.3-5.6c-0.7-2-1-4-0.9-6.1
		c0.2-3.8,1.7-7.5,4.4-10.3c2.3-2.4,5.1-4.3,8.3-5.3c2.7-0.9,5.5-1.1,8.3-0.8c3.8,0.5,7.5,1.9,10.6,4.2c0.8,0.6,1.6,1.2,2.3,1.9
		c0.5,0.5,0.7,0.7,0.7,0.7s-0.3-0.2-0.8-0.7c-0.7-0.7-1.5-1.3-2.3-1.9c-3.1-2.2-6.7-3.6-10.5-4.1c-6.1-0.7-12.2,1.6-16.3,6.1
		c-2.6,2.7-4.1,6.3-4.2,10c-0.1,2,0.2,4,0.9,6c0.7,2,1.8,3.9,3.3,5.4c1.5,1.6,3.5,2.9,5.6,3.6c2.2,0.8,4.6,1.1,7,1
		c5.1-0.2,9.8-2.3,13.5-5.8c1.9-1.8,3.3-4.1,4.1-6.5c0.8-2.6,1-5.3,0.4-7.9c-0.6-2.7-2-5.2-4-7.1c-2.2-1.9-4.7-3.2-7.5-4
		c-2.9-0.8-5.8-1.2-8.8-1.2c-3-0.1-6.1,0.3-8.9,1.2c-2.9,0.9-5.4,2.8-7,5.5c-1.5,2.7-1.9,5.9-1.2,8.9c0.6,3.1,2.3,5.9,4.6,8.1
		c2.4,2.2,5.3,3.8,8.4,4.8c6.4,2.1,13.4,1.4,19.3-1.8c1.4-0.8,2.8-1.9,3.9-3c1.1-1.2,2.1-2.5,2.8-4c1.4-3,2-6.2,1.5-9.5
		c-0.4-3.2-1.6-6.2-3.5-8.8c-2-2.5-4.6-4.4-7.5-5.7c-5.8-2.5-12.4-2.2-18,0.8c-5.3,2.9-9.2,7.6-11.1,13.3c-0.9,2.7-1.1,5.6-0.8,8.4
		c0.2,1.4,0.6,2.7,1.2,4c0.6,1.2,1.4,2.4,2.3,3.4c1.9,2,4.1,3.5,6.7,4.5c2.5,1,5.1,1.5,7.7,1.7c5,0.3,10.1-1,14.3-3.6
		c4-2.4,6.6-6.6,7-11.2c0.2-4.2-1-8.3-3.3-11.8c-2-3.2-4.7-5.8-7.9-7.8c-2.8-1.7-5.9-2.8-9.2-3.1c-2.7-0.3-5.5,0.1-8.1,1
		c-3.6,1.2-6.8,3.5-9.1,6.6c-0.6,0.8-1.1,1.6-1.5,2.5C266.1,415,266,415.3,266,415.3z"/>
	<path class="st4" d="M299.3,448.9c0.1,0.1-9.6,8.4-21.8,18.4c-12.2,10-22.2,18.1-22.2,17.9c-0.1-0.1,9.6-8.4,21.8-18.4
		C289.2,456.8,299.2,448.8,299.3,448.9z"/>
	<path class="st4" d="M301.4,484.2c-0.6-0.3-1.1-0.7-1.6-1.2l-4.3-3.3c-3.6-2.8-8.6-6.8-14.1-11.2s-10.4-8.4-14-11.3l-4.2-3.5
		c-0.5-0.4-1-0.8-1.5-1.3c0.6,0.3,1.1,0.7,1.6,1.2l4.3,3.3c3.6,2.8,8.6,6.8,14.1,11.2c5.5,4.4,10.4,8.4,14,11.3l4.2,3.5
		C300.5,483.2,301,483.7,301.4,484.2z"/>
	<path class="st4" d="M402,449.4c0.1,0.1-9.2,7.2-20.9,15.8s-21.1,15.4-21.2,15.3c-0.1-0.1,9.2-7.2,20.9-15.8
		C392.4,456,401.9,449.2,402,449.4z"/>
	<path class="st4" d="M405.7,479.3c-0.1,0.1-10-5.9-22.2-13.6c-12.1-7.6-21.9-13.9-21.8-14.1s10,5.9,22.2,13.6
		C396,472.8,405.8,479.1,405.7,479.3z"/>
	<path class="st6" d="M300.9,538.3c-0.1-0.1,9.6-10.2,21.6-22.4c12.1-12.2,22-22.1,22.2-22s-9.6,10.2-21.6,22.4
		C311,528.6,301,538.5,300.9,538.3z"/>
	<path class="st6" d="M341.9,538.3c0,0-0.2-0.1-0.4-0.4l-1-1.2c-1-1.2-2.2-2.8-3.8-4.7c-3.2-4-7.8-9.3-13-15.1
		c-5.3-5.7-10.3-10.7-14-14.2l-4.4-4.3l-1.2-1.1c-0.1-0.1-0.3-0.3-0.4-0.4c0,0,0.2,0.1,0.5,0.3l1.2,1.1c1.1,0.9,2.6,2.3,4.5,4
		c3.8,3.5,8.8,8.4,14.1,14.1c5.3,5.7,9.8,11.2,12.9,15.2c1.6,2,2.8,3.6,3.7,4.9l0.9,1.3C341.7,538,341.8,538.1,341.9,538.3z"/>
	<path class="st3" d="M241.1,487.2c0,0,0.4,29.9-7.2,47.8l-46.5-7.8c0,0,14-28.3,10.2-44L241.1,487.2z"/>
	<path class="st6" d="M241.1,486.1c0,0-5.8,36.7-9.4,47.6l-46.2-9.1c0,0,9.5-35.5,9.4-45.3L241.1,486.1z"/>
	<path class="st2" d="M199.6,495.7c0,0.2,6.9,1.8,15.4,3.5c8.6,1.8,15.5,3.1,15.5,2.9s-6.9-1.8-15.4-3.5S199.6,495.6,199.6,495.7z"
		/>
	<path class="st2" d="M198.4,503.5c0,0.2,6.9,1.7,15.4,3.5s15.5,3.1,15.5,2.9c0-0.2-6.9-1.8-15.4-3.5S198.4,503.3,198.4,503.5z"/>
	<path class="st2" d="M205.2,512.3c0.8,0.3,1.6,0.6,2.5,0.7c1.6,0.4,3.8,0.9,6.2,1.4c2.4,0.5,4.7,0.9,6.3,1.2
		c0.9,0.2,1.7,0.3,2.6,0.3c-0.8-0.3-1.7-0.6-2.5-0.7c-1.6-0.4-3.8-0.9-6.2-1.4c-2.4-0.5-4.7-0.9-6.3-1.2
		C206.9,512.4,206.1,512.3,205.2,512.3z"/>
	<path class="st3" d="M461.2,403.3c0,0,4.8,29.1-0.1,47.7l-46.6-1c0,0,9.5-29.6,3.5-44.5L461.2,403.3z"/>
	<path class="st5" d="M461,402.2c0,0-0.3,36.6-2.2,47.8l-46.5-2.2c0,0,4.1-36,2.5-45.6L461,402.2z"/>
	<path class="st2" d="M421.4,418.5c0,0.2,7,0.3,15.6,0.3c8.6,0,15.6-0.1,15.6-0.3s-7-0.3-15.6-0.3S421.4,418.3,421.4,418.5z"/>
	<path class="st2" d="M421.8,426.3c0,0.2,7,0.3,15.6,0.3c8.6,0,15.6-0.1,15.6-0.3s-7-0.3-15.6-0.3
		C428.8,426,421.8,426.1,421.8,426.3z"/>
	<path class="st2" d="M430.1,433.4c0.9,0.2,1.7,0.3,2.6,0.2c1.6,0,3.8,0.1,6.3,0.1c2.5,0,4.7,0,6.3-0.1c0.9,0,1.8,0,2.6-0.2
		c-0.9-0.2-1.7-0.3-2.6-0.2c-1.6-0.1-3.8-0.1-6.3-0.1c-2.5,0-4.7,0-6.3,0.1C431.9,433.2,431,433.2,430.1,433.4z"/>
	<path class="st4" d="M471,319.4c-8.7,0-17.4-5.4-22-13.9c-4.5-8.4-5.9-18.1-3.9-27.5c2.5-12.2,10.7-22.1,20.8-25.3
		c8.6-2.7,23.8-1.2,31.1,10.7c3.4,5.8,5.1,12.5,4.9,19.2c-0.1,2-1.9,3.5-3.9,3.4c-2-0.1-3.6-1.9-3.4-3.9c0.1-5.3-1.3-10.5-4-15
		c-5.6-9.2-17.8-9-22.5-7.5c-8.6,2.7-14.1,11.9-15.8,19.8c-1.6,7.7-0.5,15.6,3.2,22.6c3.6,6.7,11,10.8,17.5,9.9
		c2-0.3,3.9,1.1,4.2,3.1c0.3,2-1.1,3.8-3,4.1C473,319.3,472,319.4,471,319.4z"/>
	<path class="st4" d="M232.7,319.4c-8.7,0-17.4-5.4-22-13.9c-4.5-8.4-5.9-18.1-3.9-27.5c2.2-10.3,9.4-22.1,20.9-25.3
		c5.5-1.5,11.4-1.2,16.8,0.8l-2.7,6.8c-3.9-1.4-8.1-1.7-12.1-0.6c-8.5,2.4-14,11.7-15.7,19.8c-1.6,7.7-0.5,15.6,3.2,22.6
		c3.6,6.7,11,10.8,17.5,9.9l1.1,7.2C234.8,319.3,233.7,319.4,232.7,319.4z"/>
	<polygon class="st6" points="468,282.9 464.6,301.3 514.6,301.3 519,283.1 	"/>
	<path class="st4" d="M245.3,316.5c0,4.3-3.5,7.9-7.9,7.9s-8-3.5-8-7.8c0-4.3,3.5-7.9,7.9-7.9c0,0,0,0,0,0
		C241.8,308.7,245.3,312.2,245.3,316.5z"/>
	<path class="st4" d="M483.5,316.5c0,4.3-3.5,7.9-7.9,7.9s-8-3.5-8-7.8c0-4.3,3.5-7.9,7.9-7.9c0,0,0,0,0,0
		C479.9,308.7,483.5,312.2,483.5,316.5z"/>
</g>
<g id="freepik--Character--inject-9">
	<polygon class="st10" points="352.3,164.5 339.3,213.5 294.1,218.2 294.1,226.1 357.5,228.3 369.5,173.4 	"/>
	<path class="st4" d="M371.3,229.6c0,0-70.5-3.3-90.6,12.2c-20.1,15.5-10.4,40.9-10.4,40.9l113.5-0.3l10-56.8L371.3,229.6z"/>
	<path class="st5" d="M383.3,267.1c-0.3,0-0.7,0-1-0.1c-0.7-0.1-1.6-0.2-2.9-0.3c-2.5-0.3-6.2-0.8-10.6-1.6
		c-11.6-2-23.1-4.6-34.5-7.9c-6.6-1.9-12.9-3.9-18.7-5.3c-5.1-1.3-10.3-2.1-15.6-2.4c-3.6-0.2-7.1,0-10.6,0.6
		c-1.2,0.1-2.2,0.5-2.8,0.6c-0.3,0.1-0.7,0.1-1,0.2c0.3-0.1,0.6-0.2,1-0.3c0.9-0.3,1.9-0.5,2.8-0.7c3.5-0.7,7.1-1,10.7-0.8
		c5.3,0.3,10.6,1,15.8,2.3c5.8,1.4,12.1,3.3,18.7,5.3c11.3,3.3,22.7,5.9,34.2,8c4.4,0.8,8,1.4,10.5,1.8l2.9,0.4
		C382.7,267,383,267,383.3,267.1z"/>
	<path class="st5" d="M317.8,251.6c-2-1.6-4-3-6.2-4.3c-2.3-1.1-4.7-1.9-7.1-2.6c0.8-0.1,1.5,0,2.3,0.2c1.8,0.4,3.5,1,5.2,1.8
		c1.6,0.8,3.1,1.9,4.5,3.1C316.9,250.4,317.4,251,317.8,251.6z"/>
	<path class="st6" d="M378.8,381l0.9,29.3l-6,23.4c-0.4,1.6,0.6,3.2,2.2,3.6c0.1,0,0.1,0,0.2,0l0,0c1,0.2,2-0.1,2.7-0.8
		c4.5-4.3,20.9-20.3,20.7-22.5c-0.2-2.4,1.1-31,1.1-31L378.8,381z"/>
	<g class="st11">
		<path class="st2" d="M376.2,437.3l23.4-25.2v1.2c0,1.1-0.4,2.1-1.1,2.9c-1.9,2.2-7.1,8.2-19.6,20.3
			C378.2,437.2,377.2,437.5,376.2,437.3L376.2,437.3z"/>
	</g>
	<g class="st11">
		<path class="st2" d="M393.3,402.7c-0.8,0.6-1,1.6-0.5,2.4c0.5,0.8,1.6,1,2.4,0.5c0.8-0.6,1-1.7,0.5-2.5c-0.6-0.7-1.8-0.8-2.5-0.2"
			/>
	</g>
	<path class="st4" d="M382.8,424.5c-0.2,0.1-0.9-1.4-2.6-2.2c-1.1-0.4-2.3-0.6-3.4-0.6c0-0.1,0.3-0.3,1-0.4c1.9-0.2,3.7,0.6,4.7,2.2
		C382.8,424,382.9,424.5,382.8,424.5z"/>
	<path class="st4" d="M380.7,428.4c-0.9-0.5-1.7-0.9-2.6-1.2c-1-0.2-1.9-0.3-2.9-0.3c0.9-0.6,2.1-0.7,3.1-0.3
		C380,427.1,380.9,428.4,380.7,428.4z"/>
	<path class="st4" d="M386.7,419.4c-1.3-0.8-2.6-1.5-3.9-2.2c-1.4-0.4-2.9-0.8-4.4-1C381.5,415.6,384.8,416.8,386.7,419.4z"/>
	<path class="st4" d="M387.2,410.5c-0.1,0.2-1.7-0.5-3.9-0.5c-2.1,0-3.8,0.5-3.9,0.3C381.9,408.9,384.8,409,387.2,410.5z"/>
	<path class="st4" d="M387.1,401.9c-1.3-0.4-2.6-0.6-4-0.7c-1.3,0.2-2.7,0.5-3.9,1c0-0.1,0.3-0.4,0.9-0.8c1.8-1,4.1-1.1,6-0.3
		C386.8,401.5,387.1,401.8,387.1,401.9z"/>
	<path class="st4" d="M383.1,399.6c-0.1-0.4-0.1-0.7,0-1.1c0.1-1,0.4-2,0.9-2.9c0.3-0.7,0.8-1.3,1.5-1.6c0.5-0.2,1-0.1,1.4,0.3
		c0.3,0.4,0.5,0.8,0.5,1.3c-0.1,2-1.7,3.7-3.7,4c-2,0.2-4-0.8-4.9-2.5c-0.2-0.4-0.3-1-0.1-1.4c0.2-0.4,0.7-0.7,1.2-0.6
		c0.7,0.2,1.4,0.5,2,1c0.8,0.6,1.5,1.4,2,2.3c0.2,0.3,0.4,0.6,0.5,1c-0.8-1.1-1.7-2.1-2.8-2.9c-0.5-0.4-1.1-0.7-1.7-0.8
		c-0.3,0-0.6,0.1-0.7,0.3c-0.1,0.3,0,0.7,0.1,0.9c0.9,1.5,2.6,2.3,4.3,2.1c1.7-0.2,3.1-1.6,3.2-3.3c0-0.3-0.1-0.7-0.3-0.9
		c-0.2-0.2-0.5-0.3-0.8-0.2c-0.5,0.3-1,0.8-1.2,1.4C383.8,397,383.4,398.3,383.1,399.6z"/>
	<path class="st4" d="M393.8,225.6c0,0-30.5,56.9-30.9,66.9c-0.4,9.9,0,101.5,0,101.5h47.2c1.2,0,8.3-41.3,6.9-50.7
		s-6.5-60.5-6.5-60.5h27.2c0,0,7.4-7.9,7.2-17.8c-0.2-5.5-3.8-16.8-7.4-22.7c-2.3-3.8-17.2-23.9-17.2-23.9L393.8,225.6z"/>
	<path class="st5" d="M391.8,229.4c0,0.1-0.1,0.2-0.1,0.3c-0.1,0.2-0.3,0.5-0.4,0.9l-1.8,3.6c-0.8,1.5-1.7,3.4-2.9,5.6l-1.8,3.5
		l-1.9,4l-9.1,19.6c-1.7,3.6-3.6,7.5-5.5,11.5l-2.9,6.1c-0.9,2.1-1.6,4.3-2.1,6.5c-0.5,2.3-0.7,4.5-0.7,6.8
		c-0.1,2.3-0.1,4.5-0.2,6.7c0,4.4-0.1,8.7-0.1,12.7c0,8.1,0.1,15.4,0.2,21.6c0.1,6.1,0.2,11.1,0.2,14.6c0,1.7,0,3,0,4
		c0,0.4,0,0.8,0,1c0,0.3,0,0.4,0,0.4c0-0.1,0-0.2,0-0.4c0-0.3,0-0.6,0-1c0-1-0.1-2.3-0.2-4c-0.1-3.4-0.3-8.4-0.4-14.6
		s-0.3-13.4-0.3-21.6c0-4.1,0-8.3,0-12.7c0-2.2,0.1-4.5,0.2-6.7c0-2.3,0.3-4.7,0.7-7c0.5-2.3,1.2-4.5,2.1-6.7l2.9-6.1l5.5-11.5
		l9.3-19.5l1.9-4c0.7-1.2,1.2-2.4,1.8-3.5l2.9-5.5c0.8-1.5,1.4-2.7,1.9-3.5c0.2-0.4,0.4-0.7,0.5-0.9S391.8,229.4,391.8,229.4z"/>
	<path class="st5" d="M381.9,248.8c-1-2.3-1.8-4.7-2.5-7.1c-0.9-2.4-1.6-4.8-2.1-7.2c1.1,2.2,2.1,4.6,2.7,7
		C380.9,243.9,381.6,246.3,381.9,248.8z"/>
	<path class="st5" d="M417.1,341.4c-0.1-0.2-0.1-0.4-0.1-0.6c-0.1-0.5-0.1-1.1-0.3-1.9c-0.2-1.7-0.5-4-0.9-6.9
		c-0.7-5.9-1.6-13.9-2.6-22.7c-1-8.8-1.8-16.9-2.3-22.7c-0.2-2.8-0.4-5.2-0.6-6.9c0-0.8-0.1-1.4-0.1-1.9c0-0.2,0-0.4,0-0.7
		c0.1,0.2,0.1,0.4,0.1,0.6c0.1,0.5,0.1,1.1,0.2,1.9c0.2,1.7,0.5,4,0.8,6.9c0.7,5.9,1.5,13.9,2.5,22.7c0.9,8.8,1.8,16.8,2.5,22.7
		c0.3,2.8,0.5,5.2,0.7,6.9c0.1,0.8,0.1,1.4,0.1,1.9C417.1,341,417.1,341.2,417.1,341.4z"/>
	<path class="st4" d="M405.1,73.1c-0.7-4.9,3.5-9.5,8.4-10.1s9.8,2.4,12,6.8c2.1,4.5,2.2,9.6,0.4,14.2c-1.2,3.1-3.5,6.2-6.8,6.4
		s-5.8-2.2-8-4.5"/>
	<path class="st4" d="M370.4,97.2c-9.8-21.3,13.5-32,26.3-28.5c12,3.3,17.1,9.2,19,17.1c2.2,7.9,1.7,16.3-1.2,24
		c-1.6,3.7-4.3,7.5-8.4,8"/>
	<path class="st10" d="M404.3,80.6c2.1,0.2,3.7,2,3.6,4.1l0,0l-2.3,54.2c-0.1,6.4-9.6,10-16.5,9.9l0,0c-7-0.1-7.2-3.6-7.4-9.6
		c-0.2-10.2-0.2-14-0.2-13.9s-8.9-1.5-10.7-12.9c-0.9-5.7-0.6-15-0.1-22.6c0.4-6.8,5-15.3,12-14.6L404.3,80.6z"/>
	<path class="st4" d="M375.3,96.2c0,0.8,0.6,1.5,1.4,1.5c0.8,0.1,1.5-0.5,1.5-1.3c0,0,0,0,0,0c0-0.8-0.6-1.5-1.4-1.5
		C376,94.8,375.4,95.4,375.3,96.2C375.3,96.2,375.3,96.2,375.3,96.2z"/>
	<path class="st4" d="M372.8,94.6c0.2,0.2,1.3-0.6,2.9-0.6s2.8,0.8,2.9,0.6c0.2-0.2-0.1-0.4-0.6-0.8c-0.7-0.5-1.5-0.7-2.4-0.7
		c-0.8,0-1.6,0.3-2.3,0.7C372.9,94.1,372.8,94.5,372.8,94.6z"/>
	<path class="st4" d="M390.9,96.2c0,0.8,0.6,1.4,1.4,1.5c0.8,0.1,1.5-0.5,1.5-1.3c0,0,0,0,0,0c0-0.8-0.6-1.5-1.4-1.5
		C391.6,94.9,390.9,95.5,390.9,96.2z"/>
	<path class="st4" d="M388.6,94.9c0.2,0.2,1.3-0.6,2.9-0.6c1.6,0,2.8,0.8,2.9,0.6s-0.1-0.4-0.6-0.8c-0.7-0.5-1.5-0.7-2.4-0.7
		c-0.8,0-1.6,0.3-2.3,0.7C388.6,94.4,388.4,94.8,388.6,94.9z"/>
	<path class="st4" d="M382.7,106.6c-0.8-0.3-1.7-0.4-2.6-0.5c-0.4,0-0.8-0.1-0.9-0.4c0-0.4,0.1-0.8,0.3-1.2c0.4-1,0.8-2,1.2-3.1
		c1.1-2.6,2-5.3,2.7-8c-1.3,2.5-2.5,5.1-3.4,7.8l-1.2,3.1c-0.3,0.5-0.3,1-0.2,1.6c0.1,0.3,0.4,0.5,0.7,0.6c0.2,0.1,0.5,0.1,0.7,0.1
		C381,106.7,381.9,106.7,382.7,106.6z"/>
	<path class="st12" d="M381.6,125.2c5.5,0.1,10.8-1.3,15.5-4.1c0,0-3.8,7.9-15.3,6.8L381.6,125.2z"/>
	<path class="st12" d="M383.4,110.3c0.6-0.8,1.6-1.2,2.6-1c0.7,0.1,1.4,0.4,1.8,1c0.4,0.5,0.5,1.3,0.1,1.9c-0.5,0.6-1.4,0.8-2.1,0.5
		c-0.8-0.3-1.5-0.7-2-1.2c-0.2-0.1-0.3-0.3-0.5-0.5C383.2,110.8,383.2,110.6,383.4,110.3"/>
	<path class="st4" d="M387.4,107.6c-0.3,0-0.3,1.7-1.7,2.9c-1.5,1.2-3.3,1-3.3,1.2c0,0.2,0.4,0.3,1.2,0.4c1,0,2-0.3,2.8-1
		c0.7-0.6,1.2-1.5,1.4-2.4C387.8,108.1,387.6,107.6,387.4,107.6z"/>
	<path class="st4" d="M387.8,92.1c0.2,0.4,1.8,0.2,3.6,0.4c1.9,0.2,3.4,0.7,3.6,0.3c0.1-0.2-0.2-0.6-0.8-1c-0.8-0.5-1.7-0.8-2.7-0.9
		c-1-0.1-1.9,0-2.8,0.3C388.1,91.6,387.8,91.9,387.8,92.1z"/>
	<path class="st4" d="M373.4,90c0.3,0.4,1.4,0,2.7,0s2.5,0.2,2.7-0.1c0.1-0.2,0-0.5-0.6-0.9c-0.6-0.4-1.4-0.6-2.2-0.6
		c-0.8,0-1.5,0.3-2.2,0.7C373.5,89.5,373.3,89.8,373.4,90z"/>
	<path class="st4" d="M388.5,71.4c-3.9,0.2-7.7,1.4-11.1,3.4c-3.8,1.9-6.6,5.3-7.9,9.3c-0.3,0.8-0.3,1.8,0.1,2.6
		c0.8,0.9,2.1,1.2,3.2,0.7c1-0.6,1.9-1.4,2.6-2.3c0.6,2.6,3.3,4.2,5.9,3.6c1.8-0.4,3.3-1.9,3.7-3.7c0.2,2.3,2.1,4,4.5,3.9
		c2.3-0.2,4.2-1.7,4.9-3.8c0.3,2,1,3.9,2,5.6c1.1,1.7,3.2,2.6,5.2,2.1c-0.4,1.7-0.4,3.4,0.1,5.1c0.6,1.6,3.1,29.1,4.7,28.5
		s1.6-28.6,2-30.2c0.8-3.1,1.2-6.3,1.2-9.6c0.2-6.9-4.6-12.9-11.4-14.2c-3.3-0.7-6.7-1.1-10.1-0.9"/>
	<path class="st4" d="M411.7,121.4c0,0-0.1,0.1-0.4,0.2c-0.3,0.1-0.7,0.2-1.1,0.3c-3.5,0.4-6.9-1.2-8.8-4.1
		c-1.3-2.2-1.8-4.7-1.5-7.1c0.2-2.6,0.8-5,1.1-7.2c0.3-1.9,0.5-3.9,0.5-5.9c0-1.7,0-3,0-4c-0.1-0.5-0.1-1,0-1.5
		c0.1,0.5,0.2,1,0.3,1.5c0.1,1.3,0.2,2.7,0.2,4c0,2-0.1,4-0.4,5.9c-0.3,2.2-0.8,4.6-1,7.1c-0.3,2.4,0.2,4.7,1.4,6.8
		c1,1.7,2.6,2.9,4.4,3.6c1.2,0.5,2.6,0.7,3.9,0.6C411.1,121.5,411.6,121.3,411.7,121.4z"/>
	<path class="st5" d="M384.4,69.9c0.4,0.8,0.7,1.8,0.6,2.7c0.1,4.8-3.8,8.8-8.6,8.9c-0.9,0.1-1.9-0.1-2.8-0.5c0-0.1,1.1,0.2,2.7,0
		c4.5-0.3,8.1-4,8.2-8.4C384.7,71,384.3,69.9,384.4,69.9z"/>
	<path class="st5" d="M386.1,83.4c0.1,0-0.1,0.8-1,1.6c-1.2,1.1-2.8,1.6-4.4,1.5c-1.5-0.1-3-0.6-4.3-1.5c-1-0.6-1.5-1.1-1.5-1.2
		c0.6,0.2,1.2,0.4,1.7,0.8c1.3,0.7,2.7,1.1,4.2,1.2c1.4,0.1,2.9-0.3,4-1.2C385.7,84,386,83.3,386.1,83.4z"/>
	<path class="st5" d="M414,79.9c0.1,1,0,2.1-0.2,3.1c-0.3,2.5-1.3,5-2.8,7c-1.6,2.1-4,3.4-6.6,3.7c-0.8,0.1-1.6,0-2.4-0.2
		c-0.5-0.2-0.8-0.3-0.8-0.4c1,0.2,2,0.2,3.1,0.1c2.4-0.4,4.7-1.7,6.2-3.6c1.4-2,2.4-4.3,2.9-6.7C413.5,81.9,413.7,80.9,414,79.9z"/>
	<path class="st5" d="M416.1,85.4c0.1,0.3,0.2,0.6,0.2,1c0.1,0.9,0.1,1.8,0.1,2.7c-0.1,3-1.1,5.9-3.1,8.2c-1.1,1.3-2.5,2.2-4.1,2.8
		c-1.3,0.4-2.7,0.5-4,0.2c-0.9-0.2-1.8-0.5-2.5-1c-0.5-0.4-0.7-0.7-0.7-0.7c1,0.6,2.1,1.1,3.3,1.3c1.3,0.2,2.6,0.1,3.8-0.4
		c1.5-0.5,2.8-1.4,3.8-2.6c1.8-2.2,2.9-4.9,3.1-7.8C416.1,86.8,416,85.4,416.1,85.4z"/>
	<polygon class="st5" points="253.9,232.4 231.5,282.8 262.3,282.8 284.2,232 	"/>
	<path class="st0" d="M237.6,178.7l25.2,48.9h79.5l-3.2-6.4l-23-0.7l-18.8-41.3c-1.2-2.6-3.7-4.2-6.6-4.2h-50.8
		c-1.4,0-2.5,1-2.5,2.3C237.3,177.9,237.4,178.3,237.6,178.7z"/>
	<path class="st4" d="M277.4,200.6c0,1.7-1.4,3-3,3s-3-1.3-3-3c0-1.7,1.4-3,3-3C276.1,197.6,277.4,199,277.4,200.6z"/>
	<rect x="253.6" y="227.7" class="st5" width="97.1" height="4.7"/>
	<polygon class="st5" points="320.8,230.1 350.4,282.9 364.5,282.9 367.6,276.8 370.4,270.5 350.8,232.4 	"/>
	<path class="st6" d="M372.2,139.5c0,0-17.2,6-20.8,24.9l18.1,8.9L372.2,139.5z"/>
	<path class="st6" d="M372.2,139.5c0,0-12,26.6-11.5,41.1c0.2,5,3.5,18.2,3.5,18.2l6.2,32.7c0,0,47.8-6.4,48.8-6.4
		s-1.6-26.8-1.6-26.8l7.8-51.5c0,0-3.6-7-19.7-9.4C396,135.9,372.2,139.5,372.2,139.5z"/>
	<path class="st4" d="M367.7,155c0.1,0.1-1.1,2-2.7,5.5c-0.9,2-1.6,4.1-2.2,6.2c-0.7,2.6-1.2,5.2-1.6,7.9c-0.3,2.7-0.4,5.3-0.3,8
		c0.1,2.2,0.4,4.4,0.8,6.5c0.7,3.6,1.5,5.9,1.4,5.9c-0.3-0.5-0.5-1-0.6-1.5c-0.2-0.6-0.4-1.2-0.6-1.8c-0.2-0.7-0.5-1.5-0.6-2.4
		c-0.5-2.2-0.8-4.4-0.9-6.6c-0.1-2.7-0.1-5.4,0.2-8.1c0.3-2.7,0.9-5.4,1.6-8c0.6-2.1,1.4-4.2,2.4-6.2c0.3-0.8,0.7-1.5,1.2-2.3
		c0.3-0.6,0.6-1.1,1-1.7C367,155.9,367.3,155.4,367.7,155z"/>
	<path class="st6" d="M378,139.3l0.7-7.3c0.2-1.6,1.5-2.8,3.1-2.8l23.6-0.4c1.5,0,2.7,1.1,2.8,2.6l0.6,7.9c-2,4.1-5.3,7.5-9.5,9.5
		c-6.9,3.3-17.7,3.4-17.7,3.4L378,139.3z"/>
	<path class="st4" d="M384.2,129.3c0.1,0-0.3,0.5-0.4,1.2c-0.1,1.1-0.1,2.2,0,3.2c0.2,1.6,0.2,3.2,0,4.7c-0.4-1.5-0.6-3.1-0.6-4.7
		c-0.2-1.1-0.1-2.3,0.1-3.4C383.7,129.5,384.1,129.2,384.2,129.3z"/>
	<path class="st4" d="M389.8,138.3c-0.4-1.5-0.6-3-0.6-4.6c-0.1-1.1-0.1-2.2,0-3.3c0.1-0.9,0.5-1.3,0.6-1.2c0.1,0.1-0.1,0.5-0.1,1.3
		c0,0.8,0.1,1.9,0.1,3.2C390,135.2,390,136.8,389.8,138.3z"/>
	<path class="st4" d="M396.9,138.1c-0.5-1.4-0.8-2.9-0.9-4.4c-0.3-1.5-0.4-3-0.3-4.5c0.5,1.4,0.8,2.9,0.9,4.4
		C396.9,135.1,397,136.6,396.9,138.1z"/>
	<path class="st4" d="M403,138.6c-0.6-1.6-0.9-3.2-0.9-4.9c-0.2-1.7-0.2-3.3,0.1-5c0.3,1.6,0.5,3.2,0.5,4.9
		C403,135.2,403.1,136.9,403,138.6z"/>
	<g class="st13">
		<path d="M407.7,166.4c-0.9,8.2-0.3,22.3,2.6,30L424,174L407.7,166.4z"/>
	</g>
	<path class="st6" d="M424.1,145.1L424.1,145.1c4,4.1,6.8,9,8.4,14.4l2.5,11.4l-27.1,4.1c-1.5-4.8-1.8-10-1-15
		C408.3,151.5,424.1,145.1,424.1,145.1z"/>
	<path class="st4" d="M435.1,171c-0.2,0.1-0.4,0.1-0.5,0.1l-1.6,0.3l-5.8,0.9l-19.6,2.9h-0.3v-0.4c-0.1-1.6-0.1-3.3-0.1-5
		c-0.1-4.5,0-8.8,0.3-12.7c0.2-3.5,1.3-6.9,3.2-9.9c1.3-2,3-3.7,5-4.9c0.6-0.3,1.1-0.6,1.7-0.8c0.2-0.1,0.4-0.2,0.6-0.2
		c0,0-0.9,0.3-2.3,1.2c-2,1.2-3.6,2.9-4.8,4.9c-1.8,3-2.8,6.3-3,9.7c-0.3,3.9-0.3,8.1-0.2,12.6c0,1.7,0.1,3.4,0.1,5l-0.4-0.3
		l19.7-2.7l5.8-0.7l1.6-0.2C434.7,170.9,434.9,170.9,435.1,171z"/>
	<path class="st7" d="M377.9,154.2c-1.4-0.8-2.6-1.8-3.8-2.9c-1.3-1-2.4-2.1-3.3-3.4C373.4,149.7,375.8,151.8,377.9,154.2
		L377.9,154.2z"/>
	<path class="st7" d="M374.2,168.3c-1,1-2.1,1.8-3.3,2.4c-1.1,0.8-2.4,1.4-3.7,1.9C369.3,170.8,371.6,169.4,374.2,168.3L374.2,168.3
		z"/>
	<path class="st7" d="M389.3,171.7c-0.2-1.7-0.2-3.5,0-5.2c0-1.7,0.2-3.5,0.6-5.2c0.2,1.7,0.2,3.5,0,5.2
		C389.9,168.3,389.7,170,389.3,171.7z"/>
	<path class="st7" d="M404,185.8c-1.2-1.1-2.4-2.4-3.4-3.6c-1.2-1.1-2.3-2.4-3.4-3.6c1.5,0.8,2.8,2,3.9,3.3
		C402.2,182.9,403.2,184.3,404,185.8z"/>
	<path class="st7" d="M406.1,156.4c-1.1,1.1-2.3,2-3.6,2.8c-1.2,0.9-2.5,1.7-4,2.2c1.1-1.1,2.3-2,3.6-2.8
		C403.3,157.7,404.6,157,406.1,156.4z"/>
	<path class="st7" d="M392.8,145.7c-1.2,1.1-2.5,2.1-3.9,2.9c-1.3,1-2.7,1.7-4.3,2.3c1.2-1.1,2.5-2.1,3.9-2.9
		C389.8,147.1,391.3,146.3,392.8,145.7z"/>
	<path class="st7" d="M404.7,150c-0.8-1.2-1.4-2.5-1.9-3.8c-0.6-1.3-1-2.7-1.2-4.1c0.8,1.2,1.4,2.5,1.9,3.8
		C404.1,147.2,404.5,148.6,404.7,150z"/>
	<path class="st7" d="M421.2,155.3c-2-1.3-3.7-3-5-5c1,0.6,2,1.4,2.7,2.3C419.8,153.4,420.6,154.3,421.2,155.3z"/>
	<path class="st7" d="M414.4,167.2c-0.4-1.2-0.6-2.5-0.5-3.7c-0.2-1.2-0.1-2.5,0.1-3.7C414.6,162.2,414.7,164.7,414.4,167.2z"/>
	<path class="st7" d="M428.1,164.7c-1.4,0.2-2.9,0.2-4.3-0.1c-1.4-0.1-2.8-0.5-4.1-1.1c1.4,0,2.9,0.2,4.2,0.5
		C425.3,164.1,426.7,164.3,428.1,164.7z"/>
	<path class="st7" d="M373,189.2c-1-1.4-1.8-2.9-2.5-4.4c-0.8-1.5-1.5-3.1-1.9-4.7c1,1.4,1.8,2.9,2.5,4.4
		C371.9,186,372.5,187.6,373,189.2z"/>
	<path class="st7" d="M391,208.4c-1.2-1-2.2-2.2-3-3.5c-1-1.2-1.8-2.5-2.5-3.9c1.2,1,2.2,2.2,3,3.5C389.6,205.7,390.4,207,391,208.4
		z"/>
	<path class="st7" d="M406,200.3c-1.3,0.8-2.6,1.5-4.1,1.9c-1.4,0.6-2.8,1.1-4.3,1.3C400.2,202.1,403,201,406,200.3L406,200.3z"/>
	<path class="st7" d="M369.2,215.9c0.6-2.3,1.6-4.5,2.9-6.4c-0.2,1.2-0.6,2.3-1.2,3.3C370.5,213.9,369.9,215,369.2,215.9z"/>
	<path class="st7" d="M357.6,160.9c-0.7-0.9-1.1-2-1.2-3.1c-0.3-1.1-0.2-2.3,0.1-3.3c0.3,1.1,0.4,2.1,0.5,3.2
		C357.3,158.8,357.5,159.9,357.6,160.9z"/>
	<path class="st7" d="M378.2,203.6c-1.3-0.3-2.6-0.9-3.7-1.6c-1.2-0.5-2.4-1.3-3.3-2.2c1.3,0.3,2.6,0.9,3.7,1.6
		C376,202,377.2,202.7,378.2,203.6z"/>
	<path class="st7" d="M390,183.3c-2,2.4-4.4,4.5-7,6.2c0.9-1.3,2-2.4,3.3-3.4C387.4,185.1,388.7,184.1,390,183.3z"/>
	<g class="st13">
		<path d="M382.8,183c0.6,4.2,2.5,8.2,5.5,11.3c3.1,3,7.8,4.5,11.8,2.9c0.9-0.2,1.6-0.9,1.9-1.8c0.1-1.1-0.5-2.1-1.5-2.4
			c-1-0.3-2-0.5-3.1-0.4c-6.1-0.4-11.5-3.9-14.4-9.2"/>
	</g>
	<path class="st4" d="M398.8,192.7c0,0-0.3,0.1-0.8,0.1c-0.8,0.1-1.5,0.1-2.3,0c-1.1-0.1-2.2-0.4-3.3-0.8c-2.6-0.9-5-2.5-6.8-4.7
		c-0.7-0.9-1.4-1.8-1.9-2.8c-0.4-0.7-0.6-1.4-0.8-2.1c-0.1-0.3-0.2-0.5-0.2-0.8c0.1,0,0.5,1.1,1.4,2.7c0.6,0.9,1.2,1.8,1.9,2.6
		c0.9,1,1.9,1.9,3,2.6c1.1,0.7,2.3,1.4,3.5,1.9c1,0.4,2.1,0.7,3.2,0.9C397.6,192.7,398.8,192.6,398.8,192.7z"/>
	<path class="st10" d="M331,212.3l17.8-2.1l12.6,8.1l48-11.4l1.1-32.5l21.3-2.8v39.3c-0.2,9.9-8.6,17.8-18.7,17.6l-70.4-1.9l-3-5.9
		l-15.1-0.4L331,212.3z"/>
	<path class="st12" d="M408.8,207c-0.3,0.1-0.6,0.2-0.9,0.3l-2.6,0.7l-9.6,2.4l-31.9,7.6l-3,0.7h-0.1h-0.1l-12.6-8.2h0.2l-17.8,2
		l0.1-0.1l-4.7,5.9l-1.2,1.6c-0.1,0.2-0.3,0.4-0.5,0.5c0.1-0.2,0.2-0.4,0.4-0.6l1.2-1.6l4.6-6l0,0h0.1l17.8-2.2h0.1h0.1l12.6,8.1
		h-0.2l3-0.7l31.9-7.5l9.7-2.2l2.6-0.6C408.2,207.1,408.5,207,408.8,207z"/>
	<path class="st12" d="M340.7,217.4c-2.3,0.3-4.6,0.4-6.9,0.3h-1.2l0.2-0.1c-1.4,1.3-2.9,2.4-4.5,3.4c1.3-1.4,2.7-2.7,4.1-3.8
		l0.1-0.1h1.4C336.1,217,338.4,217.1,340.7,217.4z"/>
	<path class="st12" d="M417.7,212.3c-0.9-1.4-2.1-2.7-3.5-3.6c-1.5-0.8-3.1-1.4-4.8-1.6c0.5-0.2,1-0.2,1.6-0.1
		c2.5,0.3,4.8,1.7,6.2,3.9C417.4,211.3,417.6,211.8,417.7,212.3z"/>
</g>
<g id="freepik--Plant--inject-9">
	<rect x="69.4" y="482.3" class="st4" width="65.3" height="9"/>
	<path class="st4" d="M134.8,491.3H69.3v-9.2h65.5V491.3z M69.5,491.1h65.1v-8.8H69.5V491.1z"/>
	<polygon class="st4" points="75.5,488.2 84.9,534.6 119.6,534.6 128.7,491.2 	"/>
	<polygon class="st5" points="75.5,530.2 80.5,537.1 122.8,537.1 128.7,530.2 	"/>
	<path class="st4" d="M99.6,489.6c-0.1,0-0.3-21.5-0.4-48s0-48,0.1-48s0.3,21.5,0.4,48S99.7,489.6,99.6,489.6z"/>
	<path class="st4" d="M114.2,435.8c0,0.2-0.1,0.3-0.2,0.5c-0.1,0.4-0.4,0.8-0.6,1.4c-0.1,0.3-0.3,0.6-0.4,1s-0.3,0.8-0.4,1.2
		l-0.5,1.4c-0.2,0.5-0.3,1-0.5,1.6c-0.8,2.6-1.4,5.3-1.8,8c-0.5,3.3-0.8,6.7-1,10c-0.2,6.1-0.1,12.2,0.5,18.3
		c0.2,2.3,0.4,4.2,0.6,5.5c0.1,0.6,0.1,1.1,0.2,1.5c0,0.2,0,0.4,0,0.5c-0.1-0.2-0.1-0.3-0.1-0.5c-0.1-0.4-0.1-0.9-0.2-1.5
		c-0.2-1.3-0.5-3.2-0.7-5.5c-0.7-6.1-0.9-12.2-0.6-18.3c0.1-3.4,0.5-6.7,1-10c0.5-2.7,1.1-5.4,1.9-8c0.2-0.6,0.3-1.1,0.5-1.6
		l0.5-1.4l0.5-1.2c0.2-0.4,0.3-0.7,0.5-1l0.7-1.4C113.9,436.1,114,436,114.2,435.8z"/>
	<path class="st4" d="M112.5,418.5c-0.1,0.2-0.1,0.5-0.2,0.7c-0.2,0.5-0.4,1.2-0.7,2l-0.5,1.4c-0.2,0.5-0.3,1.1-0.5,1.7
		c-0.4,1.2-0.8,2.6-1.2,4.2l-0.7,2.5c-0.2,0.9-0.4,1.8-0.6,2.7c-0.5,1.9-0.8,3.9-1.2,6c-0.7,4.3-1.4,9-1.8,14s-0.6,9.7-0.6,14.1
		s0,8.2,0.2,11.5c0.1,1.6,0.2,3.1,0.2,4.4s0.2,2.4,0.2,3.3s0.1,1.6,0.2,2.1c0,0.2,0,0.5,0,0.7c-0.1-0.2-0.1-0.5-0.1-0.7
		c-0.1-0.5-0.1-1.2-0.2-2.1s-0.2-2-0.3-3.3s-0.2-2.8-0.3-4.4c-0.2-3.3-0.3-7.2-0.3-11.5s0.2-9.1,0.6-14.1s1.1-9.7,1.8-14
		c0.4-2.1,0.8-4.2,1.2-6c0.2-0.9,0.4-1.9,0.6-2.7l0.7-2.5c0.4-1.6,0.9-3,1.3-4.2c0.2-0.6,0.4-1.2,0.6-1.7s0.4-1,0.5-1.4l0.8-2
		C112.2,418.9,112.4,418.7,112.5,418.5z"/>
	<path class="st4" d="M95.5,493.4c0-0.1,0-0.2,0-0.2c0-0.2,0-0.4-0.1-0.7c-0.1-0.7-0.1-1.6-0.2-2.8c-0.2-2.5-0.4-6.1-0.7-10.5
		c-0.6-8.8-1.4-21-2.9-34.5c-0.8-6.7-1.6-13.1-2.6-18.9c-0.5-2.9-0.9-5.6-1.4-8.2s-1-4.9-1.4-7.1s-0.9-4.1-1.3-5.8s-0.7-3.2-1-4.4
		s-0.5-2.1-0.7-2.8c-0.1-0.3-0.1-0.5-0.2-0.7c0-0.1,0-0.2,0-0.2c0,0.1,0.1,0.2,0.1,0.2l0.2,0.7c0.2,0.7,0.4,1.6,0.8,2.8
		s0.7,2.6,1.1,4.4s0.9,3.6,1.4,5.8s1,4.5,1.5,7.1s1,5.3,1.5,8.2c0.9,5.8,1.8,12.2,2.6,18.9c1.5,13.4,2.3,25.6,2.7,34.5
		c0.2,4.4,0.4,8,0.5,10.5c0,1.2,0.1,2.2,0.1,2.9c0,0.3,0,0.5,0,0.7C95.6,493.2,95.5,493.3,95.5,493.4z"/>
	<path class="st6" d="M99.1,404c-0.3-3-3.4-5.3-6.4-5.4c-3.1,0.1-6,1.7-7.8,4.2c-1.8,2.5-3,5.3-3.8,8.3c-2.1,7.2-3.2,14.7-2.3,22.1
		s3.9,14.7,9.2,19.9c0.9,0.9,2,1.7,3.2,1.5c0.6-0.2,1.2-0.5,1.7-1c10.5-9.6,16.4-23.4,16.1-37.7c-0.1-2.8-0.4-5.8-2-8.1
		S101.7,403.1,99.1,404"/>
	<path class="st6" d="M76.3,379.6l-4.3,7.8c-0.1,0.2-0.2,0.4-0.4,0.4s-0.4-0.2-0.5-0.4L59.6,370l2.6-1.5L76.3,379.6z"/>
	<g class="st9">
		<path d="M76.3,379.6l-4.3,7.8c-0.1,0.2-0.2,0.4-0.4,0.4s-0.4-0.2-0.5-0.4L59.6,370l2.6-1.5L76.3,379.6z"/>
	</g>
	<path class="st6" d="M99.3,393.6l-38.8-22.9c-0.4-0.2-0.8-0.5-1-1c-0.2-0.6,0.3-1.1,0.7-1.6c5.4-5.6,13-8.6,20.7-8.1
		c7.8,0.6,14.8,4.9,18.8,11.7C103.5,378.4,103.6,387.3,99.3,393.6"/>
	<path class="st4" d="M66.2,363.4c0.2,0,0.3-0.1,0.5-0.1c0.3,0,0.8-0.1,1.5-0.1c1.8,0,3.6,0.1,5.4,0.4c2.6,0.5,5.2,1.2,7.7,2.3
		c8.6,3.9,15,11.3,17.5,20.4c0.5,1.7,0.8,3.5,1,5.3c0.1,0.6,0.1,1.1,0.1,1.5c0,0.2,0,0.3,0,0.5c0,0-0.1-0.7-0.2-2
		c-0.2-1.8-0.6-3.5-1.1-5.2c-3.3-11.6-13-20.4-24.9-22.5c-1.8-0.3-3.5-0.5-5.3-0.6C66.8,363.4,66.2,363.5,66.2,363.4z"/>
	<path class="st4" d="M94.1,377.8c-0.6,0.4-1.3,0.7-2,0.9c-1.2,0.5-3,1.1-4.9,1.7s-3.7,1.1-5,1.4c-0.7,0.2-1.4,0.3-2.1,0.4
		c0.6-0.3,1.3-0.6,2-0.7L87,380l4.9-1.6C92.6,378.1,93.3,378,94.1,377.8z"/>
	<path class="st4" d="M88,361.4c0.3,1.4,0.5,2.9,0.5,4.3c0.1,1.5,0,2.9-0.2,4.4c-0.2-1.4-0.3-2.9-0.2-4.3
		C87.9,364.3,87.9,362.9,88,361.4z"/>
	<path class="st4" d="M60.2,370.3c0.9-0.4,1.9-0.8,2.8-1c1.8-0.5,4.2-1.2,7-1.9s5.2-1.2,7-1.5c1-0.2,2-0.4,3-0.4
		c-0.9,0.3-1.9,0.5-2.9,0.7c-1.8,0.4-4.3,1-7,1.6s-5.2,1.3-7,1.8C62.1,369.9,61.1,370.1,60.2,370.3z"/>
	<path class="st6" d="M81.4,396.8c-3.3-2.5-6.9-3-11.1-2.9c-4.2,0.3-8.3,1.3-12.1,3.1c-6.6,2.9-12.7,7.1-16.6,13.1
		s-5.3,13.9-2.3,20.4c0.2,0.7,0.7,1.3,1.3,1.6c0.7,0.2,1.5,0.1,2.2-0.2c7.4-2.4,14.9-4.9,21.8-8.7s13.1-9.1,16.8-16
		c0.9-1.6,1.5-3.4,1.8-5.2C83.4,400.1,82.7,398.2,81.4,396.8"/>
	<path class="st4" d="M81.5,396c-0.2,0.1-0.3,0.2-0.5,0.2l-1.6,0.5l-1.1,0.4c-0.4,0.1-0.8,0.3-1.3,0.5c-0.9,0.4-2,0.8-3.2,1.3
		l-1.8,0.8c-0.6,0.3-1.3,0.6-1.9,1c-1.3,0.7-2.7,1.5-4.2,2.4c-6.2,3.9-11.8,8.7-16.4,14.4c-1,1.3-2.1,2.6-2.9,3.8
		c-0.4,0.6-0.9,1.2-1.2,1.8l-1,1.7c-0.7,1.1-1.2,2.1-1.7,3c-0.2,0.4-0.5,0.9-0.7,1.2s-0.4,0.7-0.5,1.1l-0.7,1.5
		c-0.1,0.2-0.2,0.3-0.3,0.5c0-0.2,0.1-0.4,0.2-0.5l0.7-1.5c0.2-0.3,0.3-0.7,0.5-1.1s0.4-0.8,0.7-1.3c0.5-0.9,1-2,1.7-3
		c0.3-0.5,0.7-1.1,1-1.7s0.8-1.2,1.2-1.8c0.8-1.3,1.8-2.5,2.9-3.9c2.3-2.9,4.9-5.5,7.6-8c2.8-2.4,5.8-4.6,8.9-6.5
		c1.5-0.9,2.8-1.7,4.2-2.4c0.7-0.3,1.3-0.7,2-1l1.8-0.8c1.2-0.5,2.3-0.9,3.2-1.3c0.5-0.2,0.9-0.3,1.3-0.5l1.1-0.3l1.6-0.5
		C81.2,396,81.3,396,81.5,396z"/>
	<path class="st4" d="M55.4,410.1c-2.7,1-5.4,1.9-8.1,2.6c-2.7,0.9-5.5,1.6-8.3,2.2c2.7-1,5.4-1.9,8.1-2.6
		C49.9,411.4,52.6,410.7,55.4,410.1z"/>
	<path class="st4" d="M55.1,428c-0.1-0.8-0.2-1.7-0.2-2.5c0-1.6,0-3.7,0-6.1s0.2-4.5,0.3-6.1c0-0.8,0.1-1.7,0.3-2.5
		c0.1,0.8,0.1,1.7,0,2.5c-0.1,1.7-0.1,3.8-0.2,6.1s-0.1,4.4-0.2,6.1C55.2,426.3,55.2,427.2,55.1,428z"/>
	<path class="st4" d="M70.4,420.2c-0.1,0-0.5-4.4-0.9-9.8s-0.6-9.8-0.4-9.8s0.5,4.4,0.9,9.8S70.6,420.2,70.4,420.2z"/>
	<path class="st4" d="M51.3,400.1c0.9-0.1,1.7-0.1,2.6-0.1c1.6,0,3.8,0.1,6.3,0.1s4.7,0.2,6.3,0.3c0.9,0,1.7,0.1,2.6,0.2
		c-0.9,0.1-1.7,0.1-2.6,0.1c-1.6,0-3.8,0-6.3-0.1s-4.7-0.2-6.3-0.3C53,400.4,52.2,400.3,51.3,400.1z"/>
	<path class="st4" d="M89.7,455.3c0-0.2-0.1-0.4-0.1-0.5c0-0.4,0-0.9-0.1-1.5c-0.1-1.3-0.1-3.2,0-5.6s0.2-5.2,0.5-8.3
		s0.7-6.5,1.4-10.1s1.4-6.9,2.2-10c0.8-3.1,1.6-5.7,2.4-8s1.4-4,2-5.3c0.2-0.6,0.4-1,0.6-1.4c0.1-0.2,0.1-0.3,0.2-0.5
		c0,0.2-0.1,0.3-0.1,0.5l-0.6,1.5c-0.5,1.2-1.1,3-1.8,5.3s-1.5,5-2.3,8s-1.5,6.4-2.2,9.9s-1.1,7-1.4,10.1s-0.5,5.9-0.6,8.3
		s-0.1,4.3-0.1,5.6c0,0.6,0,1.1,0,1.5C89.7,454.9,89.7,455.1,89.7,455.3z"/>
	<path class="st4" d="M91.8,428.8c-0.5,0.6-1,1.2-1.6,1.7c-1,1-2.4,2.3-4.1,3.8s-3.2,2.7-4.3,3.5c-0.6,0.5-1.2,0.9-1.9,1.3
		c0.5-0.6,1.1-1.1,1.7-1.6l4.2-3.6l4.1-3.7C90.5,429.7,91.1,429.2,91.8,428.8z"/>
	<path class="st4" d="M104,438.7c-0.6-0.7-1.2-1.5-1.6-2.3l-3.8-5.6l-3.9-5.5c-0.6-0.7-1.1-1.5-1.6-2.3c0.7,0.7,1.3,1.4,1.8,2.1
		c1.1,1.4,2.5,3.3,4,5.5s2.8,4.2,3.7,5.7C103.2,437,103.6,437.8,104,438.7z"/>
	<path class="st4" d="M97.6,407.5c0.1,0.1-4,2.9-9.1,6.1s-9.3,5.9-9.4,5.8s4-2.9,9.1-6.1C93.4,410,97.5,407.4,97.6,407.5z"/>
	<path class="st4" d="M109.2,420c-2.2-1.8-4.2-3.7-6.2-5.7c-2.1-1.9-4-3.9-5.9-6c2.2,1.8,4.2,3.7,6.2,5.7
		C105.4,415.9,107.3,417.9,109.2,420z"/>
	<path class="st6" d="M112,419.7l3.5-0.3c2.5-0.2,4.9-0.9,7.1-2.2c1.1-0.6,2.2-1.2,3.3-1.7c4.3-1.7,9.2-1.4,13.8-1.7
		c7.6-0.4,15.1-2.3,22-5.6c0.4-0.2,0.8-0.5,1-0.9c0.7-1.3-0.6-2.5-1.8-3.2c-5.9-3.6-11.9-7.3-18.6-9.1s-14.3-1.5-20,2.4
		C115.6,402.2,113.2,411.7,112,419.7"/>
	<path class="st4" d="M162.8,407c-0.2-0.1-0.4-0.2-0.6-0.3l-1.7-0.9c-1.4-0.8-3.5-1.9-6.1-3.1c-3-1.5-6.2-2.7-9.5-3.7
		c-4-1.1-8.2-1.5-12.3-1c-4.1,0.5-8,2.1-11.2,4.8c-2.5,2.3-4.5,5.1-5.8,8.2c-1.2,2.6-2,4.9-2.5,6.4l-0.6,1.8
		c-0.1,0.2-0.1,0.4-0.2,0.6c0-0.2,0.1-0.4,0.1-0.6c0.1-0.5,0.3-1,0.5-1.8c0.7-2.2,1.5-4.3,2.4-6.4c1.3-3.2,3.3-6,5.9-8.4
		c3.2-2.8,7.2-4.5,11.4-5c4.2-0.5,8.4-0.2,12.5,1c3.3,1,6.5,2.2,9.5,3.8c2.6,1.3,4.7,2.5,6.1,3.3l1.6,1
		C162.4,406.7,162.6,406.8,162.8,407z"/>
	<path class="st4" d="M154.3,411.5c-0.1,0.1-4.7-2.9-10.2-6.6s-10.1-6.9-10-7s4.6,2.9,10.2,6.6S154.4,411.4,154.3,411.5z"/>
	<path class="st4" d="M149.9,397.5c-2.3,0.7-4.8,1-7.2,0.7c1.2-0.2,2.4-0.4,3.6-0.4C147.5,397.5,148.7,397.4,149.9,397.5z"/>
	<path class="st4" d="M129.4,393.8c-0.9,2.1-2,4-3.4,5.8c0.4-1.1,0.9-2.1,1.5-3C128,395.6,128.6,394.6,129.4,393.8z"/>
	<path class="st4" d="M133.5,414.2c-0.8-0.3-1.5-0.7-2.2-1.2c-1.3-0.8-3.1-2-5-3.4c-1.9-1.4-3.6-2.7-4.8-3.7c-0.7-0.5-1.3-1-1.9-1.6
		c0.7,0.4,1.4,0.8,2.1,1.4l4.9,3.5c1.9,1.4,3.7,2.6,4.9,3.5C132.2,413.2,132.9,413.7,133.5,414.2z"/>
	<path class="st6" d="M117.2,434.6c-3.3-0.9-7.3,2.4-8,5.8s0.6,6.9,2.1,10c3.2,7,7.9,13.2,13.8,18.1c6,4.9,13.4,7.6,21.1,7.8
		c-1.4-6.6,0.4-13.4-0.4-20.1c-1.4-12.1-11-21.6-23.2-22.9C120.5,433,118,432.6,117.2,434.6"/>
	<path class="st4" d="M146.2,476.2c-0.2-0.1-0.3-0.1-0.5-0.2c-0.4-0.2-0.9-0.5-1.2-0.8c-1.4-1.2-2.5-2.7-3.3-4.4
		c-0.5-1-1.1-2.2-1.7-3.4s-1.2-2.6-1.8-4c-0.6-1.5-1.4-2.9-2.2-4.2c-0.9-1.5-1.9-2.8-3-4.1c-2.3-2.7-4.7-5-6.9-7.2
		c-1.9-1.9-3.7-4-5.2-6.3c-1-1.5-1.9-3.2-2.6-4.9c-0.2-0.6-0.4-1.1-0.4-1.4c-0.1-0.2-0.1-0.3-0.1-0.5c0,0,0.2,0.7,0.7,1.9
		c0.7,1.7,1.6,3.3,2.7,4.8c1.6,2.2,3.4,4.3,5.3,6.2c2.1,2.2,4.6,4.5,6.9,7.2c1.1,1.3,2.2,2.7,3.1,4.2c0.8,1.4,1.6,2.8,2.2,4.3l1.8,4
		c0.6,1.2,1.1,2.4,1.7,3.4c0.7,1.7,1.8,3.2,3.1,4.4C145.6,475.8,146.2,476.2,146.2,476.2z"/>
	<path class="st4" d="M128.9,470.7c0-0.8,0.1-1.5,0.3-2.2c0.3-1.4,0.7-3.3,1.3-5.3s1.2-3.9,1.7-5.2c0.2-0.7,0.5-1.4,0.9-2.1
		c-0.1,0.7-0.3,1.5-0.6,2.2c-0.4,1.3-1,3.2-1.6,5.2s-1,3.9-1.4,5.3C129.4,469.3,129.2,470,128.9,470.7z"/>
	<path class="st4" d="M145.6,454.6c-0.8-0.1-1.6-0.3-2.4-0.5c-1.4-0.4-3.4-0.9-5.6-1.4s-4.2-0.9-5.7-1.2c-0.8-0.1-1.6-0.3-2.4-0.5
		c0.8,0,1.6,0,2.4,0.2c1.5,0.2,3.5,0.5,5.7,1s4.2,1.1,5.6,1.5C144.1,454,144.8,454.3,145.6,454.6z"/>
	<path class="st4" d="M116.5,459.3c0-0.9,0.2-1.8,0.4-2.6c0.3-1.6,0.8-3.8,1.4-6.2s1.3-4.5,1.8-6.1c0.3-0.8,0.6-1.7,1-2.5
		c-0.1,0.9-0.4,1.7-0.6,2.5c-0.4,1.6-1.1,3.7-1.7,6.1s-1.1,4.6-1.5,6.1C117,457.6,116.8,458.5,116.5,459.3z"/>
	<path class="st4" d="M137.9,440.6c0,0.1-4.2-0.2-9.3-0.8c-5.1-0.6-9.3-1.1-9.3-1.2c3.1,0.1,6.2,0.3,9.3,0.8
		C131.7,439.6,134.8,440,137.9,440.6z"/>
	<path class="st5" d="M134.8,491.2c0,0.1-14.7,0.2-32.8,0.2s-32.8-0.1-32.8-0.2S84,491,102.1,491S134.8,491.1,134.8,491.2z"/>
	<path class="st5" d="M124.6,510.1c0,0.1-9.9,0.2-22.1,0.2s-22.1-0.1-22.1-0.2s9.9-0.2,22.1-0.2S124.6,510,124.6,510.1z"/>
	<path class="st5" d="M125,512.8c0,0.1-9.9,0.2-22.1,0.2s-22.1-0.1-22.1-0.2s9.9-0.2,22.1-0.2S125,512.6,125,512.8z"/>
	<path class="st5" d="M125,507.8c0,0.1-10.2,0.2-22.8,0.2s-22.8-0.1-22.8-0.2s10.2-0.2,22.8-0.2S125,507.7,125,507.8z"/>
</g>
</svg>
