<svg width="221" height="34" viewBox="0 0 221 34" fill="none" xmlns="http://www.w3.org/2000/svg">
<path d="M7.27457 33.6709L10.1543 21.2215L0.496094 12.8481L13.2556 11.7405L18.2176 0L23.1796 11.7405L35.9391 12.8481L26.2809 21.2215L29.1607 33.6709L18.2176 27.0696L7.27457 33.6709Z" fill="#FFB31E"/>
<path d="M53.3507 33.6709L56.2305 21.2215L46.5723 12.8481L59.3318 11.7405L64.2938 0L69.2558 11.7405L82.0153 12.8481L72.3571 21.2215L75.2368 33.6709L64.2938 27.0696L53.3507 33.6709Z" fill="#FFB31E"/>
<path d="M99.425 33.6709L102.305 21.2215L92.6465 12.8481L105.406 11.7405L110.368 0L115.33 11.7405L128.09 12.8481L118.431 21.2215L121.311 33.6709L110.368 27.0696L99.425 33.6709Z" fill="#FFB31E"/>
<path d="M145.503 33.6709L148.383 21.2215L138.725 12.8481L151.484 11.7405L156.446 0L161.408 11.7405L174.168 12.8481L164.509 21.2215L167.389 33.6709L156.446 27.0696L145.503 33.6709Z" fill="#FFB31E"/>
<path d="M220.244 12.8304L207.502 11.7316L202.522 0L197.543 11.7494L184.801 12.8304L194.477 21.2127L191.57 33.6709L202.522 27.0608L213.474 33.6709L210.586 21.2127L220.244 12.8304ZM202.522 23.7468L195.859 27.7696L197.631 20.1848L191.748 15.081L199.51 14.4076L202.522 7.26582L205.553 14.4253L213.315 15.0987L207.431 20.2025L209.203 27.7873L202.522 23.7468Z" fill="#FFB31E"/>
</svg>
